<?xml version="1.0" encoding="UTF-8"?>
<svg version="1.1" xmlns="http://www.w3.org/2000/svg" width="1254" height="1254">
<path d="M0 0 C413.82 0 827.64 0 1254 0 C1254 413.82 1254 827.64 1254 1254 C840.18 1254 426.36 1254 0 1254 C0 840.18 0 426.36 0 0 Z " fill="#FDFDFD" transform="translate(0,0)"/>
<path d="M0 0 C0.80302056 -0.00053753 1.60604111 -0.00107506 2.43339562 -0.00162888 C38.17044451 -0.02443229 73.9075159 0.02962326 109.64453125 0.0625 C109.64453125 54.1825 109.64453125 108.3025 109.64453125 164.0625 C80.71881951 162.90547153 80.71881951 162.90547153 72.08203125 162.125 C71.18419922 162.05087891 70.28636719 161.97675781 69.36132812 161.90039062 C63.89442058 161.42851018 58.46165962 160.79575474 53.01953125 160.09375 C45.16794537 159.08425202 37.30580893 158.34295388 29.41772461 157.68481445 C27.21105792 157.50033663 25.00494286 157.31009437 22.79882812 157.11914062 C15.57208959 156.50242554 8.35248424 155.97737842 1.109375 155.59765625 C-5.27045788 155.2564082 -11.57365976 154.62272716 -17.91249084 153.83389282 C-25.28779155 152.92311928 -32.67885303 152.28658065 -40.08496094 151.68481445 C-42.35514665 151.50002622 -44.62484112 151.30990989 -46.89453125 151.11914062 C-54.35328744 150.50024426 -61.80774288 149.96380306 -69.28125 149.55859375 C-75.7496209 149.20290277 -82.1239595 148.54682171 -88.54296875 147.6875 C-103.48580378 145.8148357 -118.5004315 144.97823477 -133.52612305 144.06494141 C-134.5022757 144.00518127 -135.47842834 143.94542114 -136.48416138 143.8838501 C-138.31814289 143.77234427 -140.15226304 143.66308487 -141.98654175 143.55657959 C-146.8144657 143.26587163 -151.60090481 142.83853251 -156.40483093 142.2779541 C-158.65676088 142.02922133 -160.89603431 141.89252627 -163.16015625 141.81640625 C-163.9807251 141.78482422 -164.80129395 141.75324219 -165.64672852 141.72070312 C-166.49936279 141.68912109 -167.35199707 141.65753906 -168.23046875 141.625 C-175.16267865 141.3357238 -182.02522793 140.85464433 -188.91796875 140.0625 C-195.36072551 139.32287045 -201.75009961 138.84712798 -208.23046875 138.5625 C-218.62621406 138.04912986 -228.99394034 137.04931223 -239.35546875 136.0625 C-239.35546875 91.8425 -239.35546875 47.6225 -239.35546875 2.0625 C-201.93890906 1.53337693 -201.93890906 1.53337693 -186.9453125 1.3515625 C-186.00037367 1.34009815 -185.05543484 1.3286338 -184.0818615 1.31682205 C-122.72256716 0.57657612 -61.36385552 0.03905298 0 0 Z " fill="#045583" transform="translate(563.35546875,578.9375)"/>
<path d="M0 0 C98.34 0 196.68 0 298 0 C298 45.87 298 91.74 298 139 C281.83 140.32 265.66 141.64 249 143 C247.68 143.33 246.36 143.66 245 144 C242.41154194 144.23019812 239.83508003 144.42102301 237.2421875 144.578125 C235.59462952 144.68546944 233.94708805 144.79306763 232.29956055 144.90087891 C230.97811539 144.98562469 230.97811539 144.98562469 229.62997437 145.07208252 C209.96131242 146.34229353 190.32369799 147.92992539 170.6875 149.625 C169.40172058 149.73509399 168.11594116 149.84518799 166.79119873 149.95861816 C163.1144373 150.27409334 159.43802107 150.59328578 155.76171875 150.9140625 C154.66036087 151.00875824 153.55900299 151.10345398 152.42427063 151.20101929 C147.56834622 151.63016694 142.80505387 152.16418382 138 153 C136.00865429 153.1704628 134.01471675 153.31242646 132.01953125 153.4296875 C130.87025146 153.50123047 129.72097168 153.57277344 128.53686523 153.64648438 C127.30782471 153.72189453 126.07878418 153.79730469 124.8125 153.875 C115.15019085 154.49701379 105.55161474 155.33028027 95.9375 156.5 C83.5341562 157.99656945 71.13264538 158.71052178 58.65795898 159.265625 C50.69108712 159.63571095 42.95037975 160.35899401 35.05688477 161.58325195 C31.09726663 162.12307051 27.36912863 162.16255332 23.375 162.0625 C17.6084808 161.9295486 17.6084808 161.9295486 12 163 C9.66666667 163 7.33333333 163 5 163 C3.35 163.33 1.7 163.66 0 164 C0 109.88 0 55.76 0 0 Z " fill="#8CAB5E" transform="translate(688,579)"/>
<path d="M0 0 C0 54.45 0 108.9 0 165 C-108.7359803 176.36047555 -108.7359803 176.36047555 -150.42553711 180.30126953 C-161.56947091 181.35769373 -172.69862466 182.49152557 -183.82089233 183.7550354 C-201.65053686 185.75935662 -219.50310884 187.66498975 -237.375 189.25 C-238.69890747 189.36988281 -238.69890747 189.36988281 -240.04956055 189.4921875 C-241.27412964 189.59660156 -241.27412964 189.59660156 -242.5234375 189.703125 C-243.20325684 189.76145508 -243.88307617 189.81978516 -244.58349609 189.87988281 C-248.05689388 190.05253504 -251.5223126 190.00678315 -255 190 C-255.02332798 171.50277268 -255.04097868 153.00554833 -255.05181217 134.50830936 C-255.05697534 125.92032951 -255.06401844 117.33235877 -255.07543945 108.74438477 C-255.08538565 101.26184583 -255.09185327 93.77931349 -255.09408849 86.29676813 C-255.09539571 82.33235414 -255.09848226 78.36795905 -255.10573006 74.4035511 C-255.11248926 70.67639787 -255.11461717 66.94927143 -255.11310768 63.22211266 C-255.11338406 61.85024495 -255.11538978 60.4783764 -255.11920547 59.10651398 C-255.12414108 57.24139037 -255.12239794 55.37625256 -255.12025452 53.51112366 C-255.12117631 52.46488862 -255.1220981 51.41865358 -255.12304783 50.34071445 C-255 48 -255 48 -254 47 C-251.50175342 46.45276503 -249.01492935 45.95725988 -246.5 45.5 C-245.76749023 45.36400391 -245.03498047 45.22800781 -244.28027344 45.08789062 C-240.60822853 44.4202461 -236.97027781 43.83069136 -233.25 43.5 C-229.99875045 43.199323 -227.00336702 42.52291658 -223.8515625 41.67578125 C-216.48602643 39.80089722 -209.05032017 38.46292287 -201.57296753 37.12573242 C-197.34242917 36.36838615 -193.11450282 35.59677183 -188.88671875 34.82421875 C-188.03922562 34.66944061 -187.19173248 34.51466248 -186.31855774 34.35519409 C-178.84151131 32.98337093 -171.3875578 31.51197608 -163.9375 30 C-153.19167596 27.82497724 -142.43597553 25.7108508 -131.665802 23.65991211 C-130.03460465 23.34897447 -128.40363641 23.03683207 -126.7729187 22.72338867 C-118.86285734 21.20438116 -111.01878539 19.81773254 -103 19 C-101.23892106 18.60947826 -99.48639731 18.17620302 -97.75 17.6875 C-85.06767669 14.37906783 -72.10286507 12.22393846 -59.12109375 10.49609375 C-55.01826618 9.8439547 -51.07018669 8.78424613 -47.05859375 7.71875 C-42.58507174 6.66750089 -38.06775256 6.13285276 -33.515625 5.53125 C-28.97901537 4.84571788 -24.56786076 3.80159277 -20.109375 2.73046875 C-13.29746161 1.13018256 -7.01682378 0 0 0 Z " fill="#056897" transform="translate(674,214)"/>
<path d="M0 0 C8.25 0.66 16.5 1.32 25 2 C29.44778495 2.34706201 33.89562092 2.69265739 38.34375 3.03515625 C41.62700141 3.29113402 44.91018926 3.54791332 48.19335938 3.80493164 C50.44063522 3.97998155 52.68803655 4.15342633 54.93554688 4.32543945 C58.23862477 4.5786346 61.54121005 4.83755095 64.84375 5.09765625 C65.85385132 5.17371597 66.86395264 5.2497757 67.90466309 5.32814026 C69.28506775 5.4384684 69.28506775 5.4384684 70.69335938 5.55102539 C71.50397827 5.61383194 72.31459717 5.67663849 73.14978027 5.74134827 C75 6 75 6 76 7 C78.55012442 7.35236898 81.08419091 7.64603119 83.64453125 7.90234375 C84.82828339 8.02539886 84.82828339 8.02539886 86.03594971 8.15093994 C88.62763801 8.41824752 91.21999509 8.6782406 93.8125 8.9375 C95.12914139 9.0714769 95.12914139 9.0714769 96.47238159 9.2081604 C109.13378622 10.49508192 121.79132094 11.60231991 134.4934082 12.40405273 C139.40282476 12.71630843 144.14987938 13.1573943 149 14 C152.44726967 14.24357548 155.89050553 14.43650254 159.34179688 14.60546875 C162.43981661 14.77450463 165.04004167 15.01334722 168 16 C189.45 17.98 210.9 19.96 233 22 C233 80.08 233 138.16 233 198 C226.84818073 197.31646453 221.15411145 196.47743183 215.1875 195.0625 C209.1337592 193.66716073 203.10807859 192.47643365 196.96630859 191.52612305 C194.11656799 191.02067523 191.37156612 190.35990879 188.57421875 189.62109375 C181.49839329 187.82442953 174.36058722 186.47026255 167.1875 185.125 C157.41583811 183.26726177 147.65970662 181.35412512 137.9375 179.25 C137.01155029 179.05164551 136.08560059 178.85329102 135.1315918 178.64892578 C134.27218994 178.46056152 133.41278809 178.27219727 132.52734375 178.078125 C131.79249756 177.91731445 131.05765137 177.75650391 130.30053711 177.59082031 C128 177 128 177 125.05834961 175.984375 C122.1645171 175.05295226 119.54729158 174.55745212 116.5390625 174.171875 C106.38845579 172.69427323 96.39802122 170.40970726 86.375 168.25 C84.26592024 167.7985893 82.15678905 167.34741887 80.04760742 166.89648438 C67.77283638 164.26728145 55.50455727 161.60887885 43.26904297 158.80175781 C38.45346183 157.70847286 33.65408248 156.7542872 28.77734375 155.97265625 C24.14832917 155.22718898 19.75482447 154.23091576 15.25 152.9375 C10.01039998 151.43480086 5.5278827 150.69098534 0 150 C0 100.5 0 51 0 0 Z " fill="#056998" transform="translate(440,753)"/>
<path d="M0 0 C2.00738727 0.28549508 4.00654038 0.62955454 6 1 C9.42259622 1.50413385 12.84563174 2.00479193 16.26953125 2.5 C19 3 19 3 20 4 C22.67129317 4.48357498 25.33698217 4.92044356 28.01953125 5.33203125 C36.26189999 6.6519246 44.37469499 8.31514284 52.50717163 10.18670654 C56.40784232 11.08264056 60.31321322 11.95759207 64.21875 12.83203125 C65.02777267 13.0132251 65.83679535 13.19441895 66.67033386 13.38110352 C75.32282383 15.30965209 84.00125166 17.10567006 92.6875 18.875 C93.47419067 19.03532715 94.26088135 19.1956543 95.07141113 19.36083984 C99.22619251 20.20682177 103.38151111 21.05013052 107.53710938 21.89208984 C116.77918639 23.76514684 126.01821959 25.65316744 135.25772095 27.53887939 C138.3216472 28.16386801 141.38577147 28.78787639 144.44995117 29.41162109 C163.45197024 33.28201596 182.45366004 37.1553732 201.38085938 41.37890625 C202.28771484 41.57871094 203.19457031 41.77851563 204.12890625 41.984375 C204.90306885 42.15678711 205.67723145 42.32919922 206.47485352 42.50683594 C209.62908476 43.12286099 212.81847704 43.54549672 216 44 C216 92.18 216 140.36 216 190 C202.52179328 190 202.52179328 190 197.91015625 189.3359375 C196.82299316 189.18632568 195.73583008 189.03671387 194.61572266 188.88256836 C193.44315918 188.7150708 192.2705957 188.54757324 191.0625 188.375 C188.34291436 188.00504758 185.62312639 187.63824488 182.90234375 187.27734375 C182.15480835 187.17803055 181.40727295 187.07871735 180.63708496 186.97639465 C166.94062694 185.18188135 153.2005371 183.72730258 139.47290039 182.19482422 C119.52272788 179.96547633 99.58773292 177.64109737 79.6875 175 C68.13770367 173.48554754 56.58203293 172.14564124 44.99487305 170.95117188 C39.64396284 170.39929322 34.31724795 169.81745048 29 169 C29 168.34 29 167.68 29 167 C27.11474609 167.04640625 27.11474609 167.04640625 25.19140625 167.09375 C19.68369118 167.09375 14.3712769 166.33945614 8.9375 165.5 C7.97650391 165.35691406 7.01550781 165.21382812 6.02539062 165.06640625 C3.6826545 164.71674414 1.34098223 164.3611856 -1 164 C-1.023327 142.76471249 -1.04097819 121.52942708 -1.05181217 100.29412937 C-1.05697555 90.43493281 -1.06401905 80.5757442 -1.07543945 70.71655273 C-1.08538501 62.12652183 -1.09185312 53.53649669 -1.09408849 44.94646019 C-1.09539582 40.39518805 -1.09848305 35.84393236 -1.10573006 31.29266548 C-1.11248825 27.01395181 -1.11461737 22.73526147 -1.11310768 18.45654297 C-1.1133841 16.88149323 -1.11539041 15.30644277 -1.11920547 13.73139763 C-1.1241396 11.59035748 -1.12299935 9.44940685 -1.12025452 7.30836487 C-1.12117631 6.10726861 -1.1220981 4.90617235 -1.12304783 3.66867924 C-1 1 -1 1 0 0 Z " fill="#96B467" transform="translate(689,214)"/>
<path d="M0 0 C0 50.49 0 100.98 0 153 C-31.15367647 160.51985294 -31.15367647 160.51985294 -40.3515625 162.27734375 C-51.63704564 164.51269105 -62.82827295 167.24682811 -74.0234375 169.890625 C-74.72562912 170.0564357 -75.42782074 170.2222464 -76.15129089 170.39308167 C-79.06291767 171.08082 -81.97451254 171.76868847 -84.88577271 172.45797729 C-95.94232837 175.07466017 -107.02015783 177.56397751 -118.12133789 179.98535156 C-124.78310994 181.45569002 -131.27281081 183.17854871 -137.8046875 185.14453125 C-142.09997139 186.29449112 -146.44214154 186.99859475 -150.82470703 187.71337891 C-159.983442 189.25446313 -168.9947725 191.47004916 -178.03125 193.59765625 C-179.04832031 193.83629395 -180.06539062 194.07493164 -181.11328125 194.32080078 C-182.94516074 194.75181302 -184.77602741 195.18717153 -186.60546875 195.62841797 C-187.38535156 195.81162598 -188.16523437 195.99483398 -188.96875 196.18359375 C-189.63326172 196.3427124 -190.29777344 196.50183105 -190.98242188 196.66577148 C-193.3452731 197.05719735 -195.60847864 197.02104433 -198 197 C-198.02333296 174.60852879 -198.04098114 152.21705958 -198.05181217 129.82557869 C-198.05697428 119.42945068 -198.06401537 109.0333302 -198.07543945 98.63720703 C-198.08538888 89.57875306 -198.09185405 80.52030456 -198.09408849 71.46184528 C-198.09539516 66.66294293 -198.09847824 61.8640562 -198.10573006 57.06515884 C-198.11249434 52.55252126 -198.11461612 48.03990581 -198.11310768 43.52726364 C-198.11338382 41.86716848 -198.11538654 40.20707261 -198.11920547 38.54698181 C-198.12414907 36.28805834 -198.1229958 34.02921945 -198.12025452 31.77029419 C-198.12117631 30.50375063 -198.1220981 29.23720707 -198.12304783 27.9322834 C-198 25 -198 25 -197 23 C-189.5411991 19.69709074 -181.33142753 19.20464999 -173.3125 18.5 C-170.70288594 18.25119269 -168.09351098 17.99986546 -165.484375 17.74609375 C-164.20498047 17.62218262 -162.92558594 17.49827148 -161.60742188 17.37060547 C-156.7435175 16.87091632 -151.90530784 16.23300794 -147.0625 15.5625 C-134.98798196 13.91125554 -122.8707835 12.68291325 -110.74829102 11.44555664 C-103.41379953 10.69394733 -96.09027237 9.9092173 -88.77734375 8.96875 C-81.19766127 8.00112095 -73.60861436 7.25998491 -66 6.5625 C-53.52420474 5.39541744 -41.10037112 3.94587719 -28.67333984 2.34082031 C-24.4521024 1.80266073 -20.22761798 1.29776702 -16 0.8125 C-15.30028076 0.72863037 -14.60056152 0.64476074 -13.87963867 0.55834961 C-9.16671538 0.02627314 -4.80806534 0 0 0 Z " fill="#92B063" transform="translate(886,754)"/>
<path d="M0 0 C0 50.49 0 100.98 0 153 C-60.99280197 154.15080758 -60.99280197 154.15080758 -85.73828125 154.09765625 C-88.18631975 154.09617275 -90.63435858 154.0951608 -93.08239746 154.09460449 C-101.82577004 154.08951466 -110.56913569 154.07555859 -119.3125 154.0625 C-148.8578125 154.0315625 -148.8578125 154.0315625 -179 154 C-179 109.45 -179 64.9 -179 19 C-165.26208322 16.7103472 -165.26208322 16.7103472 -158.5546875 16.10546875 C-156.9910383 15.95599523 -155.42739944 15.80641351 -153.86376953 15.65673828 C-153.05377502 15.58070374 -152.24378052 15.50466919 -151.40924072 15.42633057 C-136.62065187 14.03263224 -121.86823004 12.43345131 -107.125 10.625 C-83.66188639 7.75372418 -60.14967776 5.36298804 -36.63220215 2.98474121 C-31.5324308 2.46821179 -26.43424322 1.9432067 -21.33935547 1.38037109 C-20.04468605 1.23857674 -20.04468605 1.23857674 -18.72386169 1.09391785 C-17.16701775 0.92229458 -15.61053866 0.74730347 -14.05458069 0.56782532 C-9.28449616 0.04372417 -4.8598768 0 0 0 Z " fill="#0577A4" transform="translate(673,403)"/>
<path d="M0 0 C13.5170068 0 13.5170068 0 19.1796875 0.55078125 C20.42580811 0.6705835 21.67192871 0.79038574 22.95581055 0.91381836 C24.24914307 1.0453833 25.54247559 1.17694824 26.875 1.3125 C27.55551422 1.38002472 28.23602844 1.44754944 28.93716431 1.51712036 C38.06017539 2.42243906 47.14522458 3.49658281 56.22021484 4.80175781 C65.12709049 6.06414964 74.05961573 7.07156958 83 8.0625 C84.16867615 8.19211121 84.16867615 8.19211121 85.36096191 8.32434082 C95.75289724 9.47154118 106.14799879 10.54488061 116.56835938 11.40454102 C120.45837392 11.73069036 124.17149685 12.22153769 128 13 C131.31207348 13.26050016 134.62408257 13.4408461 137.94140625 13.62109375 C143.32925788 14.12409819 148.66234561 15.11039093 154 16 C154 61.54 154 107.08 154 154 C107.73664696 154.07841246 107.73664696 154.07841246 94.828125 154.0625 C93.92060738 154.06138214 93.01308975 154.06026428 92.07807159 154.05911255 C74.67425706 154.03332947 57.27612349 153.86827519 39.875 153.5625 C38.10555023 153.5330278 38.10555023 153.5330278 36.300354 153.50296021 C32.96834567 153.44586405 29.63652516 153.38266238 26.3046875 153.31640625 C25.37049988 153.29968872 24.43631226 153.28297119 23.47381592 153.26574707 C15.61033224 153.09183449 7.87482366 152.52498824 0 152 C0 101.84 0 51.68 0 0 Z " fill="#9DB96D" transform="translate(688,403)"/>
<path d="M0 0 C0 28.05 0 56.1 0 85 C-16.17 85 -32.34 85 -49 85 C-49 57.61 -49 30.22 -49 2 C-32.68698172 0.94754721 -16.34693311 0 0 0 Z " fill="#052856" transform="translate(443,471)"/>
<path d="M0 0 C8.9807418 0 8.9807418 0 12.19921875 0.5859375 C24.19762377 2.69531767 35.77860336 3.83605746 48 5 C48 33.71 48 62.42 48 92 C31.97902547 89.81532165 15.98122293 87.45864968 0 85 C0 56.95 0 28.9 0 0 Z " fill="#061C42" transform="translate(325,783)"/>
<path d="M0 0 C23 1 23 1 45 4 C45 31.39 45 58.78 45 87 C39.38944212 87 34.82122983 86.81140352 29.39453125 85.94140625 C28.70743576 85.8327977 28.02034027 85.72418915 27.31242371 85.61228943 C25.14481629 85.26811836 22.97870915 84.91535242 20.8125 84.5625 C19.34969588 84.3295343 17.88680574 84.09710807 16.42382812 83.86523438 C10.93033012 82.98917027 5.45599903 82.09119981 0 81 C0 54.27 0 27.54 0 0 Z " fill="#04193D" transform="translate(265,778)"/>
<path d="M0 0 C0 29.04 0 58.08 0 88 C-13.74584122 91.12405482 -27.10194284 94.02602652 -41 96 C-41.02312202 84.15234827 -41.04091437 72.30470186 -41.05181217 60.4570322 C-41.05704131 54.95629138 -41.06413951 49.45556595 -41.07543945 43.95483398 C-41.08626725 38.6510344 -41.0922766 33.34724965 -41.09487724 28.04343987 C-41.09673169 26.01514388 -41.10035267 23.98684874 -41.10573006 21.95855904 C-41.11293906 19.12803486 -41.113991 16.29757282 -41.11352539 13.46704102 C-41.11712067 12.61971909 -41.12071594 11.77239716 -41.12442017 10.8993988 C-41.11405216 5.11405216 -41.11405216 5.11405216 -40 4 C-37.64176555 3.62607798 -35.29948679 3.30819982 -32.9296875 3.02734375 C-31.85800827 2.8962899 -31.85800827 2.8962899 -30.76467896 2.7625885 C-29.24669654 2.57812432 -27.72844642 2.39585226 -26.20996094 2.21557617 C-23.90478397 1.94104704 -21.60083576 1.65758109 -19.296875 1.37304688 C-17.82037813 1.19476808 -16.34381738 1.01701745 -14.8671875 0.83984375 C-14.18461884 0.75548569 -13.50205017 0.67112762 -12.79879761 0.58421326 C-8.449216 0.07534735 -4.42880499 0 0 0 Z " fill="#698B42" transform="translate(985,784)"/>
<path d="M0 0 C36.63636364 1.40909091 36.63636364 1.40909091 43 3 C43 30.39 43 57.78 43 86 C28.81 86 14.62 86 0 86 C0 57.62 0 29.24 0 0 Z " fill="#678940" transform="translate(891,470)"/>
<path d="M0 0 C36 3 36 3 45 4 C45 30.73 45 57.46 45 85 C29.90769144 85 14.95636354 82.02113021 0 80 C0 53.6 0 27.2 0 0 Z " fill="#04193D" transform="translate(207,772)"/>
<path d="M0 0 C0 26.73 0 53.46 0 81 C-14.85 81 -29.7 81 -45 81 C-45 54.93 -45 28.86 -45 2 C-38.503125 1.67 -32.00625 1.34 -25.3125 1 C-22.24835815 0.84337891 -22.24835815 0.84337891 -19.12231445 0.68359375 C-17.4943084 0.60146296 -15.86629765 0.51942544 -14.23828125 0.4375 C-13.40018921 0.39431641 -12.56209717 0.35113281 -11.6986084 0.30664062 C-10.88710327 0.26603516 -10.07559814 0.22542969 -9.23950195 0.18359375 C-8.54000931 0.14806396 -7.84051666 0.11253418 -7.11982727 0.07592773 C-4.74793755 -0.00902834 -2.37341071 0 0 0 Z " fill="#011941" transform="translate(379,475)"/>
<path d="M0 0 C0 26.4 0 52.8 0 80 C-6.496875 80.495 -12.99375 80.99 -19.6875 81.5 C-21.73026123 81.65662109 -23.77302246 81.81324219 -25.87768555 81.97460938 C-27.50568536 82.09780509 -29.13369573 82.22086133 -30.76171875 82.34375 C-31.59981079 82.40852539 -32.43790283 82.47330078 -33.3013916 82.54003906 C-34.11289673 82.60094727 -34.92440186 82.66185547 -35.76049805 82.72460938 C-36.45999069 82.77790405 -37.15948334 82.83119873 -37.88017273 82.8861084 C-40.25033375 83.01344964 -42.62642062 83 -45 83 C-45 57.26 -45 31.52 -45 5 C-37.47855256 3.6324641 -30.06212565 2.37511918 -22.5 1.375 C-21.54480469 1.2409375 -20.58960938 1.106875 -19.60546875 0.96875 C-18.17654297 0.77925781 -18.17654297 0.77925781 -16.71875 0.5859375 C-15.88279297 0.4729834 -15.04683594 0.3600293 -14.18554688 0.24365234 C-9.4701069 -0.11701665 -4.72921307 0 0 0 Z " fill="#021941" transform="translate(379,373)"/>
<path d="M0 0 C0 26.07 0 52.14 0 79 C-20.31551205 82.58509036 -20.31551205 82.58509036 -27.5625 83.6875 C-28.37267578 83.81705078 -29.18285156 83.94660156 -30.01757812 84.08007812 C-30.81744141 84.20189453 -31.61730469 84.32371094 -32.44140625 84.44921875 C-33.12920166 84.55580811 -33.81699707 84.66239746 -34.52563477 84.7722168 C-38.00321101 85.09235282 -41.50771943 85 -45 85 C-45 59.59 -45 34.18 -45 8 C-6.33333333 0 -6.33333333 0 0 0 Z " fill="#031A42" transform="translate(379,270)"/>
<path d="M0 0 C0 26.07 0 52.14 0 79 C-14.99479104 79.51706176 -29.99629675 80 -45 80 C-45 54.26 -45 28.52 -45 2 C-8 0 -8 0 0 0 Z " fill="#04183C" transform="translate(321,478)"/>
<path d="M0 0 C32 1 32 1 44 2 C44 28.4 44 54.8 44 82 C31 82 31 82 26 81 C17.42 80.34 8.84 79.68 0 79 C0 52.93 0 26.86 0 0 Z " fill="#04183D" transform="translate(266,679)"/>
<path d="M0 0 C14.19 0 28.38 0 43 0 C43 26.73 43 53.46 43 81 C28.66279122 81 14.32098103 80.68195148 0 80 C0 53.6 0 27.2 0 0 Z " fill="#061A3E" transform="translate(267,580)"/>
<path d="M0 0 C0 25.41 0 50.82 0 77 C-9.7453125 77.99 -9.7453125 77.99 -19.6875 79 C-22.75164185 79.31324219 -22.75164185 79.31324219 -25.87768555 79.6328125 C-27.50567669 79.79707258 -29.13368653 79.96114752 -30.76171875 80.125 C-31.59981079 80.21136719 -32.43790283 80.29773438 -33.3013916 80.38671875 C-34.51864929 80.50853516 -34.51864929 80.50853516 -35.76049805 80.6328125 C-36.45999069 80.70387207 -37.15948334 80.77493164 -37.88017273 80.84814453 C-40.24792074 81.01775999 -42.6261845 81 -45 81 C-45 55.92 -45 30.84 -45 5 C-23.01780959 1.52912783 -23.01780959 1.52912783 -15.1875 0.8125 C-14.36958984 0.73064453 -13.55167969 0.64878906 -12.70898438 0.56445312 C-8.41281149 0.15115921 -4.34718964 0 0 0 Z " fill="#02173B" transform="translate(321,380)"/>
<path d="M0 0 C14.67045406 0 29.35486167 0.13852127 44 1 C44 26.74 44 52.48 44 79 C35.35890665 79 27.15329446 78.92760037 18.625 78.0625 C17.70589844 77.97548828 16.78679687 77.88847656 15.83984375 77.79882812 C10.5427731 77.28876783 5.28438404 76.660548 0 76 C0 50.92 0 25.84 0 0 Z " fill="#05193C" transform="translate(208,677)"/>
<path d="M0 0 C0 24.75 0 49.5 0 75 C-5.85394553 76.17078911 -11.48369681 77.28259765 -17.36328125 78.0703125 C-19.31137695 78.33134766 -19.31137695 78.33134766 -21.29882812 78.59765625 C-21.95826416 78.68418457 -22.6177002 78.77071289 -23.29711914 78.85986328 C-25.32702377 79.1269107 -27.35589021 79.40103516 -29.38476562 79.67578125 C-31.32319336 79.93294922 -31.32319336 79.93294922 -33.30078125 80.1953125 C-34.46778564 80.35016113 -35.63479004 80.50500977 -36.8371582 80.66455078 C-40 81 -40 81 -45 81 C-45 56.58 -45 32.16 -45 7 C-39.06 6.01 -33.12 5.02 -27 4 C-26.67 3.67 -26.34 3.34 -26 3 C-22.79825386 2.32845535 -19.54864217 1.91213418 -16.3125 1.4375 C-15.41337891 1.29892578 -14.51425781 1.16035156 -13.58789062 1.01757812 C-12.27014648 0.82131836 -12.27014648 0.82131836 -10.92578125 0.62109375 C-9.72562378 0.44211548 -9.72562378 0.44211548 -8.5012207 0.25952148 C-5.68129894 -0.03306776 -2.83506035 0 0 0 Z " fill="#05193D" transform="translate(321,282)"/>
<path d="M0 0 C19 0 19 0 40 2 C40 28.73 40 55.46 40 83 C26.66250065 83 13.30795889 82.88719726 0 82 C0 54.94 0 27.88 0 0 Z " fill="#698A41" transform="translate(946,475)"/>
<path d="M0 0 C0 25.41 0 50.82 0 77 C-14.19 77 -28.38 77 -43 77 C-43 52.25 -43 27.5 -43 2 C-9 0 -9 0 0 0 Z " fill="#061A3D" transform="translate(265,481)"/>
<path d="M0 0 C13.43709625 0 26.72398721 2.925623 40 5 C40 31.07 40 57.14 40 84 C6 82 6 82 0 81 C0 54.27 0 27.54 0 0 Z " fill="#688A40" transform="translate(946,371)"/>
<path d="M0 0 C0 27.72 0 55.44 0 84 C-35 91 -35 91 -37 91 C-37 61.96 -37 32.92 -37 3 C-12 0 -12 0 0 0 Z " fill="#66883F" transform="translate(1034,778)"/>
<path d="M0 0 C13.53 0 27.06 0 41 0 C41 25.08 41 50.16 41 76 C27.3292689 76 13.65980762 75.5463923 0 75 C0 50.25 0 25.5 0 0 Z " fill="#02173A" transform="translate(156,579)"/>
<path d="M0 0 C10.00344498 1.0003445 19.36500752 2.1970931 29 5 C32.63 5.66 36.26 6.32 40 7 C40 32.41 40 57.82 40 84 C20.83116883 81.87012987 20.83116883 81.87012987 13 80 C8.71 79.34 4.42 78.68 0 78 C0 52.26 0 26.52 0 0 Z " fill="#698B40" transform="translate(946,270)"/>
<path d="M0 0 C0 23.76 0 47.52 0 72 C-25 76 -25 76 -43 77 C-43 53.9 -43 30.8 -43 7 C-35.13615572 4.75318735 -35.13615572 4.75318735 -30.9765625 4.18359375 C-30.10128906 4.05919922 -29.22601563 3.93480469 -28.32421875 3.80664062 C-26.98810547 3.62391602 -26.98810547 3.62391602 -25.625 3.4375 C-23.82499835 3.18996804 -22.02548303 2.93886405 -20.2265625 2.68359375 C-19.04441162 2.52201782 -19.04441162 2.52201782 -17.83837891 2.35717773 C-15.98933066 2.17575248 -15.98933066 2.17575248 -15 1 C-9.82753007 0.0499545 -5.36369083 0 0 0 Z " fill="#071B3F" transform="translate(266,292)"/>
<path d="M0 0 C4.27094994 0.310919 8.54173666 0.62402908 12.8125 0.9375 C14.6059082 1.06801758 14.6059082 1.06801758 16.43554688 1.20117188 C17.61826172 1.28818359 18.80097656 1.37519531 20.01953125 1.46484375 C21.09307861 1.543396 22.16662598 1.62194824 23.27270508 1.70288086 C28.1852241 2.09447945 33.09213636 2.55383058 38 3 C38 28.74 38 54.48 38 81 C25.79 81 13.58 81 1 81 C-0.71987206 79.28012794 -0.11974788 77.09122971 -0.12442017 74.79867554 C-0.12082489 74.05421173 -0.11722961 73.30974792 -0.11352539 72.54272461 C-0.11367142 71.76229294 -0.11381744 70.98186127 -0.1139679 70.17778015 C-0.11326858 67.5859402 -0.10547536 64.99417122 -0.09765625 62.40234375 C-0.09579213 60.6101536 -0.0943682 58.81796294 -0.09336853 57.02577209 C-0.08954284 52.29929203 -0.07971212 47.57284248 -0.06866455 42.84637451 C-0.05845153 38.0271445 -0.05387115 33.20790958 -0.04882812 28.38867188 C-0.03808989 18.92576781 -0.02101286 9.46288644 0 0 Z " fill="#6B8C44" transform="translate(995,478)"/>
<path d="M0 0 C0 24.75 0 49.5 0 75 C-30 77 -30 77 -41 77 C-41 53.24 -41 29.48 -41 5 C-6 0 -6 0 0 0 Z " fill="#02173B" transform="translate(197,389)"/>
<path d="M0 0 C9.8690625 -0.0309375 9.8690625 -0.0309375 19.9375 -0.0625 C22.01667725 -0.071604 24.09585449 -0.08070801 26.23803711 -0.09008789 C27.87613866 -0.09300701 29.51424094 -0.09555558 31.15234375 -0.09765625 C32.44017761 -0.1053302 32.44017761 -0.1053302 33.75402832 -0.11315918 C35.83636052 -0.1134691 37.9186036 -0.06242176 40 0 C41 1 41 1 41.12025452 3.89161682 C41.11803391 5.18623337 41.11581329 6.48084991 41.11352539 7.81469727 C41.11367142 8.52685394 41.11381744 9.23901062 41.1139679 9.9727478 C41.1132687 12.33733112 41.10547606 14.70183661 41.09765625 17.06640625 C41.09579209 18.70165463 41.09436818 20.33690357 41.09336853 21.97215271 C41.08954318 26.28434785 41.07971275 30.59650952 41.06866455 34.90869141 C41.0584508 39.30565946 41.05387099 43.70263289 41.04882812 48.09960938 C41.03809049 56.73308831 41.02101387 65.36654 41 74 C27.14164276 74.33892722 13.93391142 73.16115929 0 72 C0 48.24 0 24.48 0 0 Z " fill="#01163A" transform="translate(101,674)"/>
<path d="M0 0 C12.54 0 25.08 0 38 0 C38.04010881 19.1764674 38.04010881 19.1764674 38.04882812 27.32226562 C38.05481642 32.8903905 38.06191634 38.458499 38.07543945 44.02661133 C38.08626886 48.51344546 38.09227695 53.00026204 38.09487724 57.48710823 C38.0967314 59.20280293 38.10035182 60.91849662 38.10573006 62.63418388 C38.11294121 65.02884913 38.11399091 67.42344096 38.11352539 69.81811523 C38.11712067 70.53452682 38.12071594 71.25093842 38.12442017 71.98905945 C38.11405216 76.88594784 38.11405216 76.88594784 37 78 C24.79 78.33 12.58 78.66 0 79 C0 52.93 0 26.86 0 0 Z " fill="#688A41" transform="translate(998,579)"/>
<path d="M0 0 C0 26.73 0 53.46 0 81 C-31 87 -31 87 -36 87 C-36 59.61 -36 32.22 -36 4 C-29.07 3.01 -29.07 3.01 -22 2 C-17.55140792 1.20121198 -17.55140792 1.20121198 -13.109375 0.3671875 C-8.7680355 -0.14548325 -4.37150546 0 0 0 Z " fill="#678941" transform="translate(1080,772)"/>
<path d="M0 0 C4.60845866 0.54883489 9.21659712 1.10026204 13.82446289 1.65405273 C15.39078456 1.84193366 16.95719016 2.02911637 18.52368164 2.21557617 C20.78033725 2.48431096 23.03667527 2.7555874 25.29296875 3.02734375 C25.98899704 3.10967758 26.68502533 3.19201141 27.40214539 3.27684021 C30.98873104 3.71141625 34.4492771 4.28985542 38 5 C38 30.41 38 55.82 38 82 C25.61039838 82 25.61039838 82 20.2734375 81.37890625 C19.14035156 81.24806641 18.00726562 81.11722656 16.83984375 80.98242188 C15.69644531 80.84384766 14.55304687 80.70527344 13.375 80.5625 C11.60189453 80.36043945 11.60189453 80.36043945 9.79296875 80.15429688 C1.1328176 79.1328176 1.1328176 79.1328176 0 78 C-0.09498646 75.56603981 -0.12558417 73.16057048 -0.11352539 70.72631836 C-0.11367142 69.96539383 -0.11381744 69.2044693 -0.1139679 68.42048645 C-0.11326862 65.89357702 -0.10547555 63.36674038 -0.09765625 60.83984375 C-0.09579212 59.0924941 -0.0943682 57.34514393 -0.09336853 55.59779358 C-0.08954293 50.98968066 -0.07971229 46.38159905 -0.06866455 41.77349854 C-0.05845134 37.07491479 -0.0538711 32.37632601 -0.04882812 27.67773438 C-0.03809005 18.45180913 -0.02101313 9.22590716 0 0 Z " fill="#698B43" transform="translate(995,378)"/>
<path d="M0 0 C0 25.74 0 51.48 0 78 C-15 80 -15 80 -37 81 C-37 54.6 -37 28.2 -37 1 C-24.68618995 0.23038687 -12.33783702 0 0 0 Z " fill="#66883E" transform="translate(1035,678)"/>
<path d="M0 0 C0 25.08 0 50.16 0 76 C-22 79 -22 79 -36 79 C-36 53.26 -36 27.52 -36 1 C-24.01608677 0.29506393 -12.00462874 0 0 0 Z " fill="#678940" transform="translate(1080,676)"/>
<path d="M0 0 C4.2270496 0.60386423 8.14095665 1.18886019 12.25 2.15625 C13.65765625 2.48302734 13.65765625 2.48302734 15.09375 2.81640625 C17.03125 3.27213542 18.96875 3.72786458 20.90625 4.18359375 C24.96970159 5.12689501 28.9860954 6.05315838 33.125 6.59375 C36 7 36 7 37 8 C37.09443335 10.30053835 37.11742128 12.60402173 37.11352539 14.90649414 C37.11367142 15.62840439 37.11381744 16.35031464 37.1139679 17.09410095 C37.11326869 19.49114947 37.10547595 21.88812123 37.09765625 24.28515625 C37.0957921 25.94282489 37.09436818 27.60049407 37.09336853 29.25816345 C37.08954312 33.62954214 37.07971265 38.00088781 37.06866455 42.37225342 C37.05845092 46.82954461 37.05387101 51.28684111 37.04882812 55.74414062 C37.0380904 64.49610893 37.02101371 73.24805036 37 82 C35.25752797 81.85627344 33.51540513 81.70830973 31.7734375 81.55859375 C30.80325684 81.47665771 29.83307617 81.39472168 28.83349609 81.31030273 C25.62719768 80.95917355 22.59352848 80.29718864 19.46484375 79.5390625 C15.31787378 78.6321182 11.11759777 78.07195858 6.91796875 77.46484375 C4 77 4 77 0 76 C0 50.92 0 25.84 0 0 Z " fill="#688A40" transform="translate(996,280)"/>
<path d="M0 0 C20.80053191 0 20.80053191 0 27.5625 0.9375 C28.28373047 1.02451172 29.00496094 1.11152344 29.74804688 1.20117188 C34.85179079 1.85179079 34.85179079 1.85179079 36 3 C36.09443335 5.30053835 36.11742128 7.60402173 36.11352539 9.90649414 C36.11367142 10.62840439 36.11381744 11.35031464 36.1139679 12.09410095 C36.11326869 14.49114947 36.10547595 16.88812123 36.09765625 19.28515625 C36.0957921 20.94282489 36.09436818 22.60049407 36.09336853 24.25816345 C36.08954312 28.62954214 36.07971265 33.00088781 36.06866455 37.37225342 C36.05845092 41.82954461 36.05387101 46.28684111 36.04882812 50.74414062 C36.0380904 59.49610893 36.02101371 68.24805036 36 77 C32.81252107 77.02993587 29.62507965 77.04710106 26.4375 77.0625 C25.56158203 77.07087891 24.68566406 77.07925781 23.78320312 77.08789062 C15.76898131 77.11661543 8.06332558 76.53755504 0 76 C0 50.92 0 25.84 0 0 Z " fill="#698B43" transform="translate(1042,483)"/>
<path d="M0 0 C12.54 0 25.08 0 38 0 C38 23.76 38 47.52 38 72 C25.32894813 72 12.66092718 71.50643709 0 71 C0 47.57 0 24.14 0 0 Z " fill="#04183B" transform="translate(50,578)"/>
<path d="M0 0 C0 23.76 0 47.52 0 72 C-12.65909241 72.55039532 -25.32894813 73 -38 73 C-38 50.23 -38 27.46 -38 4 C-8 0 -8 0 0 0 Z " fill="#02173A" transform="translate(88,420)"/>
<path d="M0 0 C11.55 0 23.1 0 35 0 C35 24.75 35 49.5 35 75 C23.38649548 76.16135045 11.6714276 76 0 76 C0 50.92 0 25.84 0 0 Z " fill="#688A41" transform="translate(1087,577)"/>
<path d="M0 0 C3.79008787 0.63168131 7.42934165 1.2851732 11.15234375 2.15625 C12.56483398 2.48302734 12.56483398 2.48302734 14.00585938 2.81640625 C15.95658184 3.27127158 17.90710382 3.72699755 19.85742188 4.18359375 C23.93804702 5.12634925 27.97363792 6.05088259 32.12890625 6.59375 C35 7 35 7 36 8 C36.09436529 10.23929886 36.11742327 12.4816175 36.11352539 14.72290039 C36.11367142 15.4253035 36.11381744 16.1277066 36.1139679 16.85139465 C36.11326872 19.18351278 36.10547617 21.515552 36.09765625 23.84765625 C36.09579208 25.46048438 36.09436818 27.07331307 36.09336853 28.68614197 C36.08954323 32.93915357 36.07971285 37.19213124 36.06866455 41.44512939 C36.05845069 45.7817743 36.05387096 50.11842467 36.04882812 54.45507812 C36.03809059 62.97006769 36.02101403 71.48502963 36 80 C32.66012432 79.5236611 29.32029286 79.0470128 25.98046875 78.5703125 C25.04328003 78.43665283 24.10609131 78.30299316 23.14050293 78.1652832 C2.41202165 75.20601083 2.41202165 75.20601083 0 74 C0 49.58 0 25.16 0 0 Z " fill="#698B43" transform="translate(1042,290)"/>
<path d="M0 0 C0 23.76 0 47.52 0 72 C-15 74 -15 74 -35 74 C-35 49.91 -35 25.82 -35 1 C-23.358233 0.16844521 -11.6714276 0 0 0 Z " fill="#678941" transform="translate(1163,673)"/>
<path d="M0 0 C11.37676547 1.338443 22.71908093 3.00924958 34 5 C34 28.76 34 52.52 34 77 C22.73881374 77 22.73881374 77 18.7890625 76.59765625 C17.93699219 76.51193359 17.08492187 76.42621094 16.20703125 76.33789062 C15.35496094 76.24701172 14.50289062 76.15613281 13.625 76.0625 C12.74972656 75.97548828 11.87445312 75.88847656 10.97265625 75.79882812 C7.18224995 75.40821373 3.71324415 74.92831104 0 74 C0 49.58 0 25.16 0 0 Z " fill="#66893F" transform="translate(1086,390)"/>
<path d="M0 0 C10.89 0 21.78 0 33 0 C33 23.43 33 46.86 33 71 C22.04014612 71.99635035 11.00504935 72 0 72 C0 48.24 0 24.48 0 0 Z " fill="#688A43" transform="translate(1171,577)"/>
<path d="M0 0 C5.28 0.66 10.56 1.32 16 2 C21.50195148 2.65778031 21.50195148 2.65778031 27.00585938 3.29882812 C31.88777282 3.88777282 31.88777282 3.88777282 33 5 C33.09429342 7.17805719 33.11742538 9.3592128 33.11352539 11.53930664 C33.11367142 12.22220261 33.11381744 12.90509857 33.1139679 13.60868835 C33.11326876 15.87587614 33.1054764 18.14298274 33.09765625 20.41015625 C33.09579207 21.97814387 33.09436817 23.54613207 33.09336853 25.11412048 C33.08954334 29.24876503 33.07971306 33.38337466 33.06866455 37.51800537 C33.05845044 41.73400398 33.05387091 45.95000822 33.04882812 50.16601562 C33.03809079 58.44402647 33.02101436 66.7220089 33 75 C31.64595503 75.02763357 30.29173445 75.04667422 28.9375 75.0625 C28.18339844 75.07410156 27.42929688 75.08570313 26.65234375 75.09765625 C23.41635123 74.97851072 20.20563978 74.45794854 17 74 C11.39 73.67 5.78 73.34 0 73 C0 48.91 0 24.82 0 0 Z " fill="#698A43" transform="translate(1171,419)"/>
<path d="M0 0 C11.02638638 2.20527728 22.01189426 4.61128136 33 7 C33 29.11 33 51.22 33 74 C21.91948657 74 10.94134918 71.75061587 0 70 C0 46.9 0 23.8 0 0 Z " fill="#688942" transform="translate(1133,310)"/>
<path d="M0 0 C32.67 0 65.34 0 99 0 C94.50989724 2.24505138 91.17059983 2.26286898 86.30004883 2.21118164 C84.98485008 2.20921028 84.98485008 2.20921028 83.64308167 2.2071991 C80.74762141 2.20071243 77.85242597 2.18028593 74.95703125 2.16015625 C72.94732449 2.15388659 70.93761427 2.14864625 68.92790222 2.14439392 C63.63956027 2.13109133 58.35133382 2.10665273 53.06304932 2.07904053 C44.58723675 2.03591108 36.11139173 2.00627194 27.63550377 1.9829998 C24.66783325 1.97273683 21.70025463 1.95569346 18.73262024 1.93800354 C16.9256702 1.93117955 15.11871932 1.92457073 13.31176758 1.91821289 C12.48008057 1.91147552 11.64839355 1.90473816 10.79150391 1.89779663 C8.86070594 1.89390959 6.92990881 1.94128148 5 2 C3.76507388 3.01337001 3.76507388 3.01337001 3.87695217 5.1064539 C3.87787396 6.04207377 3.87879576 6.97769365 3.87974548 7.94166565 C3.87837082 9.01163788 3.87699615 10.08161011 3.87557983 11.18400574 C3.87917511 12.36795425 3.88277039 13.55190277 3.88647461 14.77172852 C3.88632858 16.010578 3.88618256 17.24942749 3.8860321 18.52581787 C3.88661108 21.93269833 3.89164041 25.33951884 3.89860606 28.74638867 C3.90484007 32.30316826 3.90544344 35.85994858 3.90663147 39.41673279 C3.90974465 46.15636582 3.91795785 52.89598271 3.92798096 59.63560861 C3.93914252 67.30658398 3.94465265 74.97756011 3.94967639 82.64854157 C3.96014048 98.43237041 3.97773965 114.21618313 4 130 C6.97 130.33 9.94 130.66 13 131 C13.33 131.99 13.66 132.98 14 134 C9.38 134 4.76 134 0 134 C0 89.78 0 45.56 0 0 Z " fill="#01103B" transform="translate(324,581)"/>
<path d="M0 0 C98.67 0 197.34 0 299 0 C299 0.33 299 0.66 299 1 C200.66 1 102.32 1 1 1 C1 55.12 1 109.24 1 165 C3.475 164.01 3.475 164.01 6 163 C8.640625 162.83984375 8.640625 162.83984375 11.25 162.9375 C12.83255466 162.99134432 14.41666264 163.02052474 16 163 C16.33 162.67 16.66 162.34 17 162 C23.46153846 161.64102564 23.46153846 161.64102564 27 164 C23.81309767 164.33921452 20.62539896 164.67029417 17.4375 165 C16.54224609 165.09539062 15.64699219 165.19078125 14.72460938 165.2890625 C13.40493164 165.42441406 13.40493164 165.42441406 12.05859375 165.5625 C11.25736084 165.64628906 10.45612793 165.73007812 9.63061523 165.81640625 C6.427618 166.03994722 3.21078835 166 0 166 C0 111.22 0 56.44 0 0 Z " fill="#BFD1AA" transform="translate(687,578)"/>
<path d="M0 0 C50.82 0 101.64 0 154 0 C154 45.87 154 91.74 154 139 C150.7 139 147.4 139 144 139 C144 138.34 144 137.68 144 137 C146.64 136.67 149.28 136.34 152 136 C151.67 91.78 151.34 47.56 151 2 C130.21 2 109.42 2 88 2 C72.95921919 1.87047767 57.92042425 1.73368819 42.88067627 1.53643799 C37.98884609 1.47318841 33.09695953 1.41459838 28.20507812 1.35546875 C18.80332948 1.2412135 9.4016464 1.12236437 0 1 C0 0.67 0 0.34 0 0 Z " fill="#719249" transform="translate(832,579)"/>
<path d="M0 0 C9.8690625 -0.0309375 9.8690625 -0.0309375 19.9375 -0.0625 C22.01667725 -0.071604 24.09585449 -0.08070801 26.23803711 -0.09008789 C27.87613866 -0.09300701 29.51424094 -0.09555558 31.15234375 -0.09765625 C32.44017761 -0.1053302 32.44017761 -0.1053302 33.75402832 -0.11315918 C35.83636052 -0.1134691 37.9186036 -0.06242176 40 0 C41 1 41 1 41.12025452 3.89161682 C41.11803391 5.18623337 41.11581329 6.48084991 41.11352539 7.81469727 C41.11367142 8.52685394 41.11381744 9.23901062 41.1139679 9.9727478 C41.1132687 12.33733112 41.10547606 14.70183661 41.09765625 17.06640625 C41.09579209 18.70165463 41.09436818 20.33690357 41.09336853 21.97215271 C41.08954318 26.28434785 41.07971275 30.59650952 41.06866455 34.90869141 C41.0584508 39.30565946 41.05387099 43.70263289 41.04882812 48.09960938 C41.03809049 56.73308831 41.02101387 65.36654 41 74 C27.14164276 74.33892722 13.93391142 73.16115929 0 72 C0 48.24 0 24.48 0 0 Z M4 1 C2.58302807 3.83394387 2.88054071 6.20873738 2.88647461 9.37744141 C2.88632858 10.03122269 2.88618256 10.68500397 2.8860321 11.3585968 C2.88672964 13.52295227 2.8945146 15.68722204 2.90234375 17.8515625 C2.90420849 19.35086012 2.90563213 20.85015834 2.90663147 22.34945679 C2.91045221 26.29831622 2.92027872 30.24713896 2.93133545 34.19598389 C2.94155909 38.22440087 2.94613113 42.25282378 2.95117188 46.28125 C2.96190138 54.18751685 2.9789725 62.09375386 3 70 C6.96 70 10.92 70 15 70 C15 70.66 15 71.32 15 72 C23.41212173 72.96138534 31.45995151 73 40 73 C40 49.24 40 25.48 40 1 C28.12 1 16.24 1 4 1 Z " fill="#0F1C3F" transform="translate(101,674)"/>
<path d="M0 0 C9.24 0 18.48 0 28 0 C28 54.12 28 108.24 28 164 C-0.92376682 162.84304933 -0.92376682 162.84304933 -10.25 162 C-11.24 161.9175 -12.23 161.835 -13.25 161.75 C-17.5741452 161.37601987 -21.75040587 160.90698318 -26 160 C-26 159.67 -26 159.34 -26 159 C-22.93744039 158.9729509 -19.8751214 158.95313702 -16.8125 158.9375 C-15.94818359 158.92912109 -15.08386719 158.92074219 -14.19335938 158.91210938 C-9.95139397 158.89585663 -6.15743378 159.11410388 -2 160 C0.35377138 160.04313899 2.70867794 160.04027931 5.0625 160 C8.95332244 159.9335612 12.25722621 159.98780331 16 161 C17.58211573 161.06548492 19.16670081 161.08578381 20.75 161.0625 C21.54921875 161.05347656 22.3484375 161.04445313 23.171875 161.03515625 C23.77515625 161.02355469 24.3784375 161.01195312 25 161 C25.7233239 156.45598371 26.12413597 152.10112686 26.12025452 147.50160217 C26.12162918 146.23827057 26.12300385 144.97493896 26.12442017 143.67332458 C26.12088197 142.29141211 26.11724717 140.90949988 26.11352539 139.52758789 C26.11324303 138.05859377 26.11340221 136.58959951 26.1139679 135.12060547 C26.11425396 131.14799372 26.10838803 127.17541237 26.10139394 123.20280766 C26.09512868 119.04547993 26.09455409 114.88815143 26.09336853 110.7308197 C26.09026456 102.86515979 26.08206378 94.99951383 26.07201904 87.13386005 C26.06082888 78.17619172 26.05534014 69.21852271 26.05032361 60.26084912 C26.03988037 41.84055818 26.02229904 23.42028021 26 5 C25.34 4.67 24.68 4.34 24 4 C24 3.01 24 2.02 24 1 C23.34257813 1.16113281 22.68515625 1.32226562 22.0078125 1.48828125 C18.28781722 2.12116356 14.6361464 2.18407455 10.875 2.1875 C10.15957031 2.19974609 9.44414063 2.21199219 8.70703125 2.22460938 C4.92179791 2.23522218 3.22632988 2.15088659 0 0 Z " fill="#1EA3C0" transform="translate(645,579)"/>
<path d="M0 0 C14 1 14 1 18 3 C17 4 17 4 15.15234375 4.09765625 C13.1015625 4.06510417 11.05078125 4.03255208 9 4 C9 3.34 9 2.68 9 2 C8.01 2 7.02 2 6 2 C6 2.66 6 3.32 6 4 C5.01 4 4.02 4 3 4 C2.17469923 12.36820742 1.85141637 20.64270088 1.85473633 29.04882812 C1.85137772 30.2926123 1.8480191 31.53639648 1.84455872 32.81787109 C1.8367539 36.18924131 1.83338547 39.56054992 1.83274293 42.93192482 C1.83202761 45.04197574 1.82988452 47.15202036 1.82724571 49.2620697 C1.8180355 56.63239955 1.81390636 64.00271146 1.81469727 71.37304688 C1.81530052 78.23286788 1.80468944 85.09261089 1.7889536 91.95241213 C1.7758865 97.86010243 1.77051285 103.76776714 1.77115268 109.67547178 C1.77140742 113.19660422 1.76856757 116.71766682 1.75797462 120.23878479 C1.74651062 124.15466397 1.75103525 128.07043488 1.75708008 131.98632812 C1.75146057 133.14998901 1.74584106 134.3136499 1.74005127 135.51257324 C1.74424576 136.5777417 1.74844025 137.64291016 1.75276184 138.74035645 C1.75221707 139.66499947 1.75167231 140.58964249 1.75111103 141.54230499 C2.0173164 144.1709936 2.56378528 145.79155495 4 148 C6.05000871 148.80528889 6.05000871 148.80528889 8 149 C8 149.33 8 149.66 8 150 C5.36 150 2.72 150 0 150 C0 100.5 0 51 0 0 Z " fill="#0D3A6C" transform="translate(440,753)"/>
<path d="M0 0 C2.64 0 5.28 0 8 0 C8 50.49 8 100.98 8 153 C-53.02558725 154.15142617 -53.02558725 154.15142617 -79.3125 154.0625 C-82.05794117 154.05682097 -84.80338404 154.05281637 -87.54882812 154.04882812 C-94.03257462 154.03821741 -100.51628205 154.02184638 -107 154 C-107 153.67 -107 153.34 -107 153 C-83.39596134 152.14166845 -59.7987445 151.73083527 -36.18133545 151.46777344 C-31.62737343 151.41635724 -27.07345509 151.36131668 -22.51953125 151.30664062 C-13.67972505 151.20101112 -4.83988086 151.09918459 4 151 C4 150.34 4 149.68 4 149 C4.66 148.67 5.32 148.34 6 148 C6 99.49 6 50.98 6 1 C4.02 1 2.04 1 0 1 C0 0.67 0 0.34 0 0 Z " fill="#2BA1BE" transform="translate(665,403)"/>
<path d="M0 0 C2.31 0 4.62 0 7 0 C6.35005979 0.38305298 5.70011957 0.76610596 5.0304842 1.1607666 C2.78112648 2.83246315 2.78112648 2.83246315 2.50501537 5.45349121 C2.50740373 6.43499146 2.50979208 7.4164917 2.51225281 8.42773438 C2.50530899 9.55501953 2.49836517 10.68230469 2.49121094 11.84375 C2.504021 13.08125 2.51683105 14.31875 2.5300293 15.59375 C2.5278389 16.89634766 2.5256485 18.19894531 2.52339172 19.54101562 C2.51796638 23.11550895 2.53739967 26.68948513 2.56149268 30.2638855 C2.58276731 34.00207934 2.58219307 37.74027086 2.58418274 41.47851562 C2.59063325 47.75660111 2.6118908 54.03449197 2.64331055 60.3125 C2.68359912 68.37326313 2.70099755 76.43389938 2.71061993 84.49475098 C2.71892047 91.42106782 2.73615849 98.34735775 2.75565743 105.27365112 C2.75970717 106.76113811 2.76344661 108.24862597 2.7668798 109.7361145 C2.77816705 114.62621714 2.79832926 119.51619609 2.82299805 124.40625 C2.82568695 125.64375 2.82837585 126.88125 2.83114624 128.15625 C2.83830154 129.28353516 2.84545685 130.41082031 2.85282898 131.57226562 C2.8592392 133.04451599 2.8592392 133.04451599 2.86577892 134.54650879 C2.89928593 137.1377483 2.89928593 137.1377483 4 140 C9.94 139.67 15.88 139.34 22 139 C19 141 19 141 0 142 C0 95.14 0 48.28 0 0 Z " fill="#214170" transform="translate(419,262)"/>
<path d="M0 0 C-2.22922955 2.22922955 -4.09135278 2.88128953 -7 4 C-8.22537341 5.00404203 -8.22537341 5.00404203 -8.12025452 7.02722454 C-8.11803391 7.92555413 -8.11581329 8.82388372 -8.11352539 9.74943542 C-8.1134549 10.77708008 -8.1133844 11.80472473 -8.11331177 12.86351013 C-8.10814545 14.00062943 -8.10297913 15.13774872 -8.09765625 16.30932617 C-8.09619598 17.49952362 -8.09473572 18.68972107 -8.0932312 19.91598511 C-8.08841381 23.19103755 -8.07922438 26.46604573 -8.06846237 29.74108291 C-8.05850755 33.16692673 -8.05497111 36.59277587 -8.05102539 40.01863098 C-8.03896081 49.48229006 -8.0169571 58.94592128 -7.99479675 68.40956116 C-7.97460932 77.06806641 -7.95653146 85.72656201 -7.94658184 94.38508588 C-7.94242115 97.79576843 -7.93609728 101.20641934 -7.92483521 104.61708641 C-7.91287662 108.42596429 -7.90698277 112.23480838 -7.90234375 116.04370117 C-7.89717743 117.17069931 -7.89201111 118.29769745 -7.88668823 119.45884705 C-7.88661774 120.50059082 -7.88654724 121.54233459 -7.88647461 122.61564636 C-7.884254 123.51586108 -7.88203339 124.4160758 -7.87974548 125.34356976 C-8 128 -8 128 -9 134 C-1.41 134 6.18 134 14 134 C14 134.33 14 134.66 14 135 C1.625 135.495 1.625 135.495 -11 136 C-11 91.45 -11 46.9 -11 1 C-7.1273408 0.0318352 -3.96388638 -0.07622858 0 0 Z " fill="#0C4D81" transform="translate(505,421)"/>
<path d="M0 0 C0.33 0 0.66 0 1 0 C1 43.89 1 87.78 1 133 C2.24267064 131.97930278 2.24267064 131.97930278 2.12304783 129.83107662 C2.12212604 128.86595937 2.12120424 127.90084211 2.12025452 126.90647888 C2.12162918 125.80285004 2.12300385 124.69922119 2.12442017 123.56214905 C2.12082489 122.34079758 2.11722961 121.11944611 2.11352539 119.86108398 C2.11367142 118.58322021 2.11381744 117.30535645 2.1139679 115.98876953 C2.11425585 112.47446409 2.1083594 108.9601925 2.10139394 105.44589496 C2.09516012 101.77700644 2.09455658 98.10811723 2.09336853 94.43922424 C2.0902553 87.48709565 2.08204202 80.5349827 2.07201904 73.58286101 C2.06085766 65.6700522 2.05534739 57.75724266 2.05032361 49.84442794 C2.0398594 33.56294279 2.02226011 17.28147339 2 1 C2.99 1.33 3.98 1.66 5 2 C4.67 2.33 4.34 2.66 4 3 C3.90391337 4.64490549 3.87812213 6.29395691 3.87974548 7.94166565 C3.87837082 9.01163788 3.87699615 10.08161011 3.87557983 11.18400574 C3.87917511 12.36795425 3.88277039 13.55190277 3.88647461 14.77172852 C3.88632858 16.010578 3.88618256 17.24942749 3.8860321 18.52581787 C3.88661108 21.93269833 3.89164041 25.33951884 3.89860606 28.74638867 C3.90484007 32.30316826 3.90544344 35.85994858 3.90663147 39.41673279 C3.90974465 46.15636582 3.91795785 52.89598271 3.92798096 59.63560861 C3.93914252 67.30658398 3.94465265 74.97756011 3.94967639 82.64854157 C3.96014048 98.43237041 3.97773965 114.21618313 4 130 C6.97 130.33 9.94 130.66 13 131 C13.33 131.99 13.66 132.98 14 134 C9.38 134 4.76 134 0 134 C0 89.78 0 45.56 0 0 Z " fill="#19284B" transform="translate(324,581)"/>
<path d="M0 0 C3.63 0 7.26 0 11 0 C11 27.39 11 54.78 11 83 C8.36 83 5.72 83 3 83 C3 82.67 3 82.34 3 82 C4.65 82 6.3 82 8 82 C8 55.6 8 29.2 8 2 C6.02 2 4.04 2 2 2 C1.34 1.34 0.68 0.68 0 0 Z " fill="#1A233F" transform="translate(299,782)"/>
<path d="M0 0 C2.64 0 5.28 0 8 0 C8 23.76 8 47.52 8 72 C2.72 72 -2.56 72 -8 72 C-7.34 71.01 -6.68 70.02 -6 69 C-3.3984375 68.48828125 -3.3984375 68.48828125 -0.375 68.3125 C0.62789062 68.24675781 1.63078125 68.18101562 2.6640625 68.11328125 C3.82035156 68.05720703 3.82035156 68.05720703 5 68 C4.98525131 67.19011627 4.97050262 66.38023254 4.95530701 65.54580688 C4.81741119 57.92354653 4.68443941 50.3012239 4.5570364 42.67878151 C4.49135831 38.75975856 4.42375818 34.84078819 4.35180664 30.921875 C4.28247505 27.14184519 4.21813849 23.36176071 4.15730476 19.58158493 C4.13317835 18.13742344 4.10723415 16.69329116 4.07946587 15.2491951 C4.04096178 13.23083135 4.00944595 11.21233792 3.97827148 9.19384766 C3.95828598 8.04357086 3.93830048 6.89329407 3.91770935 5.7081604 C4 3 4 3 5 1 C3.35 1 1.7 1 0 1 C0 0.67 0 0.34 0 0 Z " fill="#152040" transform="translate(80,420)"/>
<path d="M0 0 C1.65 0 3.3 0 5 0 C5 26.73 5 53.46 5 81 C2.36 81 -0.28 81 -3 81 C-3 80.67 -3 80.34 -3 80 C-1.35 80 0.3 80 2 80 C2 54.59 2 29.18 2 3 C1.34 3 0.68 3 0 3 C0 2.01 0 1.02 0 0 Z " fill="#2E3751" transform="translate(247,776)"/>
<path d="M0 0 C0.33 0 0.66 0 1 0 C1 54.45 1 108.9 1 165 C-26 168 -26 168 -36 168 C-36 167.67 -36 167.34 -36 167 C-35.2793335 166.91435791 -34.55866699 166.82871582 -33.81616211 166.74047852 C-30.52317358 166.34866394 -27.23033621 165.95559261 -23.9375 165.5625 C-22.80376953 165.42779297 -21.67003906 165.29308594 -20.50195312 165.15429688 C-14.9913002 164.49558909 -9.4890291 163.82056603 -4 163 C-4 162.34 -4 161.68 -4 161 C-3.01 160.34 -2.02 159.68 -1 159 C-0.55345816 156.16347785 -0.55345816 156.16347785 -0.64596558 152.76792908 C-0.64410787 152.12172452 -0.64225016 151.47551996 -0.64033616 150.80973345 C-0.63772692 148.63452811 -0.65661221 146.46003124 -0.67529297 144.28491211 C-0.67777507 142.7296107 -0.67892345 141.17430668 -0.67883301 139.6190033 C-0.68225217 135.38767029 -0.70404068 131.15660185 -0.72874975 126.92534709 C-0.75117875 122.50555511 -0.75591522 118.08574799 -0.76223755 113.66590881 C-0.77674114 105.29122992 -0.8056878 96.91667057 -0.84048474 88.54205376 C-0.90237223 73.53474136 -0.93992496 58.52735707 -0.97207749 43.51995474 C-0.9839453 38.24823007 -1.0021633 32.97657478 -1.02559257 27.70488918 C-1.03937475 24.43258257 -1.04925046 21.16027194 -1.05822754 17.88794899 C-1.06331647 16.3644937 -1.07015743 14.84104316 -1.07883072 13.31760406 C-1.09043561 11.24675053 -1.09601217 9.17596723 -1.10006714 7.10508728 C-1.10488539 5.94346038 -1.10970364 4.78183348 -1.11466789 3.58500576 C-1 1 -1 1 0 0 Z " fill="#2AB0CA" transform="translate(673,214)"/>
<path d="M0 0 C3.96 0 7.92 0 12 0 C12 0.33 12 0.66 12 1 C8.37 1 4.74 1 1 1 C1 55.12 1 109.24 1 165 C3.475 164.01 3.475 164.01 6 163 C8.640625 162.83984375 8.640625 162.83984375 11.25 162.9375 C12.83255466 162.99134432 14.41666264 163.02052474 16 163 C16.33 162.67 16.66 162.34 17 162 C23.46153846 161.64102564 23.46153846 161.64102564 27 164 C23.81309767 164.33921452 20.62539896 164.67029417 17.4375 165 C16.54224609 165.09539062 15.64699219 165.19078125 14.72460938 165.2890625 C13.40493164 165.42441406 13.40493164 165.42441406 12.05859375 165.5625 C11.25736084 165.64628906 10.45612793 165.73007812 9.63061523 165.81640625 C6.427618 166.03994722 3.21078835 166 0 166 C0 111.22 0 56.44 0 0 Z " fill="#D0DEB5" transform="translate(687,578)"/>
<path d="M0 0 C33 0 66 0 100 0 C100 0.33 100 0.66 100 1 C75.8033958 2.90492529 51.57143758 3.14360286 27.3125 3.0625 C24.6412769 3.05687431 21.97005441 3.05290584 19.29882812 3.04882812 C12.86586429 3.03800212 6.43293683 3.02142741 0 3 C0 2.01 0 1.02 0 0 Z " fill="#2A85AD" transform="translate(522,579)"/>
<path d="M0 0 C2.31 0 4.62 0 7 0 C6.34 0.66 5.68 1.32 5 2 C4.01 2 3.02 2 2 2 C1.67 59.42 1.34 116.84 1 176 C2.32 176.33 3.64 176.66 5 177 C3.35 177 1.7 177 0 177 C0 118.59 0 60.18 0 0 Z " fill="#CEDBB1" transform="translate(687,775)"/>
<path d="M0 0 C3 3 3 3 3.36076355 5.41081238 C3.35410172 6.36345474 3.34743988 7.31609711 3.34057617 8.29760742 C3.34034958 9.37850143 3.34012299 10.45939545 3.33988953 11.57304382 C3.32440567 12.73874405 3.30892181 13.90444427 3.29296875 15.10546875 C3.28872391 16.29981033 3.28447906 17.49415192 3.28010559 18.72468567 C3.26328959 22.54585144 3.22563093 26.36649316 3.1875 30.1875 C3.17245699 32.77538302 3.15876792 35.36327429 3.14648438 37.95117188 C3.11337645 44.30096058 3.06314762 50.65044286 3 57 C2.67 57 2.34 57 2 57 C1.67 62.94 1.34 68.88 1 75 C0.67 75 0.34 75 0 75 C0 50.25 0 25.5 0 0 Z " fill="#DEE1E7" transform="translate(197,389)"/>
<path d="M0 0 C2.64 0 5.28 0 8 0 C7.360625 0.309375 6.72125 0.61875 6.0625 0.9375 C4.06389179 1.8345163 4.06389179 1.8345163 3 3 C2.90039994 5.19266155 2.87200244 7.38857402 2.87060547 9.58349609 C2.86885315 10.27132675 2.86710083 10.95915741 2.86529541 11.66783142 C2.86087626 13.95305874 2.86381573 16.23820932 2.8671875 18.5234375 C2.86651432 20.10665909 2.86554418 21.68988057 2.86428833 23.27310181 C2.86281115 26.59711691 2.86496599 29.9211052 2.86962891 33.24511719 C2.87531693 37.5079888 2.87205321 41.77079733 2.86605644 46.03366661 C2.86244346 49.30557735 2.86359298 52.57747312 2.86618423 55.84938431 C2.86685194 57.4210778 2.86603052 58.99277265 2.86370468 60.56446457 C2.86116712 62.76225123 2.86503478 64.95993579 2.87060547 67.15771484 C2.87140106 68.40934418 2.87219666 69.66097351 2.87301636 70.95053101 C2.86106744 74.04400869 2.86106744 74.04400869 4 77 C4.66 77.33 5.32 77.66 6 78 C4.02 78 2.04 78 0 78 C0 52.26 0 26.52 0 0 Z " fill="#041031" transform="translate(266,781)"/>
<path d="M0 0 C2.64 0 5.28 0 8 0 C8 0.33 8 0.66 8 1 C6.02 1 4.04 1 2 1 C2 25.09 2 49.18 2 74 C3.32 74.33 4.64 74.66 6 75 C5.505 75.495 5.505 75.495 5 76 C3.35 76 1.7 76 0 76 C0 50.92 0 25.84 0 0 Z " fill="#253251" transform="translate(276,385)"/>
<path d="M0 0 C1.32 0 2.64 0 4 0 C4 23.76 4 47.52 4 72 C0.37 72 -3.26 72 -7 72 C-7 71.67 -7 71.34 -7 71 C-4.03 71 -1.06 71 2 71 C2 48.23 2 25.46 2 2 C1.34 2 0.68 2 0 2 C0 1.34 0 0.68 0 0 Z " fill="#081230" transform="translate(137,675)"/>
<path d="M0 0 C0 23.1 0 46.2 0 70 C-0.99 69.34 -1.98 68.68 -3 68 C-3.36076355 65.21591187 -3.36076355 65.21591187 -3.34057617 61.62255859 C-3.34101425 60.96877731 -3.34145233 60.31499603 -3.34190369 59.6414032 C-3.33981081 57.47677925 -3.3164578 55.3129264 -3.29296875 53.1484375 C-3.28737453 51.64914371 -3.28310361 50.14984444 -3.28010559 48.65054321 C-3.26864298 44.70154723 -3.239164 40.75288148 -3.20599365 36.80401611 C-3.17532305 32.77563953 -3.16160672 28.74720965 -3.14648438 24.71875 C-3.11429532 16.81234833 -3.06308227 8.90621523 -3 1 C-1 0 -1 0 0 0 Z " fill="#E3E5EC" transform="translate(50,578)"/>
<path d="M0 0 C0.33 0 0.66 0 1 0 C1 24.09 1 48.18 1 73 C-9.2145465 73 -18.97005442 72.96056717 -29.0625 72 C-30.13048828 71.90460938 -31.19847656 71.80921875 -32.29882812 71.7109375 C-34.86657508 71.48064629 -37.43349919 71.24371873 -40 71 C-40 70.67 -40 70.34 -40 70 C-35.05 69.67 -30.1 69.34 -25 69 C-25 69.66 -25 70.32 -25 71 C-24.36835937 70.98839844 -23.73671875 70.97679687 -23.0859375 70.96484375 C-15.27494469 70.88605852 -7.86787976 71.43800859 0 72 C0 48.24 0 24.48 0 0 Z " fill="#959DAD" transform="translate(141,675)"/>
<path d="M0 0 C0.33 0 0.66 0 1 0 C1 36.96 1 73.92 1 112 C-0.32 111.67 -1.64 111.34 -3 111 C-2.01 110.01 -2.01 110.01 -1 109 C-0.68662475 106.97781646 -0.68662475 106.97781646 -0.7215271 104.62142944 C-0.71036362 103.70153732 -0.69920013 102.7816452 -0.68769836 101.83387756 C-0.68553818 100.82183762 -0.68337799 99.80979767 -0.68115234 98.76708984 C-0.67110672 97.7036586 -0.6610611 96.64022736 -0.65071106 95.54457092 C-0.61972985 92.01669881 -0.60280244 88.48890307 -0.5859375 84.9609375 C-0.56723787 82.51998226 -0.54766538 80.07903356 -0.5272522 77.63809204 C-0.47579771 71.20357105 -0.43624336 64.76902907 -0.39910889 58.33441162 C-0.35915255 51.77236686 -0.30802213 45.2104104 -0.2578125 38.6484375 C-0.1608956 25.76568803 -0.07616224 12.88288802 0 0 Z " fill="#048FB2" transform="translate(671,839)"/>
<path d="M0 0 C0.79921875 0.01804687 1.5984375 0.03609375 2.421875 0.0546875 C3.02515625 0.07789063 3.6284375 0.10109375 4.25 0.125 C4.25 0.785 4.25 1.445 4.25 2.125 C4.81589844 1.96257813 5.38179688 1.80015625 5.96484375 1.6328125 C8.32174255 1.10905721 10.40162662 0.99184138 12.8125 1 C13.95912109 0.99613281 13.95912109 0.99613281 15.12890625 0.9921875 C17.25 1.125 17.25 1.125 20.25 2.125 C21.343125 2.104375 22.43625 2.08375 23.5625 2.0625 C29.85598037 1.9562311 36.05127921 3.14992033 42.25 4.125 C42.25 4.455 42.25 4.785 42.25 5.125 C25.17626718 5.34234596 8.10949025 5.04353361 -8.75 2.125 C-5.68753253 0.34090198 -3.52920727 -0.10380021 0 0 Z M33.25 1.125 C34.735 2.115 34.735 2.115 36.25 3.125 C35.26 3.125 34.27 3.125 33.25 3.125 C33.25 2.465 33.25 1.805 33.25 1.125 Z " fill="#051945" transform="translate(359.75,713.875)"/>
<path d="M0 0 C1.77074917 -0.02705729 3.54161711 -0.04642195 5.3125 -0.0625 C6.29863281 -0.07410156 7.28476562 -0.08570313 8.30078125 -0.09765625 C11 0 11 0 14 1 C16.38033072 1.26448119 18.76555102 1.48574256 21.15234375 1.68359375 C22.58270446 1.80768746 24.01304234 1.93204457 25.44335938 2.05664062 C27.69237347 2.24850081 29.94153039 2.43783052 32.19116211 2.62231445 C34.36640539 2.80221463 36.54058244 2.99223791 38.71484375 3.18359375 C40.01542725 3.29243896 41.31601074 3.40128418 42.65600586 3.51342773 C45.61230892 3.9435885 47.48555238 4.4552461 50 6 C45.47919907 6.67812014 42.4060016 7.1015004 38 6 C35.3305881 5.79979411 32.67261123 5.63072555 30 5.5 C25.89142898 5.29903729 21.9912164 5.04083056 18 4 C14.7322363 3.73707648 11.46479863 3.55717907 8.19140625 3.37890625 C5.11363591 3.01349166 2.79948816 2.29247398 0 1 C0 0.67 0 0.34 0 0 Z " fill="#118AB1" transform="translate(594,768)"/>
<path d="M0 0 C9.24 0 18.48 0 28 0 C28 18.15 28 36.3 28 55 C27.67 55 27.34 55 27 55 C26.67 38.5 26.34 22 26 5 C25.34 4.67 24.68 4.34 24 4 C24 3.01 24 2.02 24 1 C23.34257813 1.16113281 22.68515625 1.32226562 22.0078125 1.48828125 C18.28781722 2.12116356 14.6361464 2.18407455 10.875 2.1875 C10.15957031 2.19974609 9.44414063 2.21199219 8.70703125 2.22460938 C4.92179791 2.23522218 3.22632988 2.15088659 0 0 Z " fill="#23A8C5" transform="translate(645,579)"/>
<path d="M0 0 C0.33 0 0.66 0 1 0 C1 17.16 1 34.32 1 52 C2.65 51.34 4.3 50.68 6 50 C8.640625 49.83984375 8.640625 49.83984375 11.25 49.9375 C12.83255466 49.99134432 14.41666264 50.02052474 16 50 C16.33 49.67 16.66 49.34 17 49 C23.46153846 48.64102564 23.46153846 48.64102564 27 51 C23.81309767 51.33921452 20.62539896 51.67029417 17.4375 52 C16.54224609 52.09539063 15.64699219 52.19078125 14.72460938 52.2890625 C13.84482422 52.37929688 12.96503906 52.46953125 12.05859375 52.5625 C11.25736084 52.64628906 10.45612793 52.73007812 9.63061523 52.81640625 C6.427618 53.03994722 3.21078835 53 0 53 C0 35.51 0 18.02 0 0 Z " fill="#D1DEB5" transform="translate(687,691)"/>
<path d="M0 0 C0 24.75 0 49.5 0 75 C-0.33 75 -0.66 75 -1 75 C-1 51.24 -1 27.48 -1 3 C-5.29 2.67 -9.58 2.34 -14 2 C-14 1.67 -14 1.34 -14 1 C-12.60459859 0.82975495 -11.20865091 0.6639851 -9.8125 0.5 C-9.03519531 0.4071875 -8.25789063 0.314375 -7.45703125 0.21875 C-4.98008214 -0.00177329 -2.48674635 0 0 0 Z " fill="#0D153A" transform="translate(379,475)"/>
<path d="M0 0 C2.64 0 5.28 0 8 0 C8 24.75 8 49.5 8 75 C7.67 75 7.34 75 7 75 C7 50.91 7 26.82 7 2 C5.35 2.33 3.7 2.66 2 3 C1.34 2.67 0.68 2.34 0 2 C0 1.34 0 0.68 0 0 Z " fill="#729646" transform="translate(878,754)"/>
<path d="M0 0 C0 0.33 0 0.66 0 1 C-1.78857422 1.19916016 -1.78857422 1.19916016 -3.61328125 1.40234375 C-5.17970678 1.58055983 -6.74611198 1.75895456 -8.3125 1.9375 C-9.09818359 2.02451172 -9.88386719 2.11152344 -10.69335938 2.20117188 C-11.8293457 2.33168945 -11.8293457 2.33168945 -12.98828125 2.46484375 C-13.68477783 2.543396 -14.38127441 2.62194824 -15.09887695 2.70288086 C-17.21648234 2.97996783 -17.21648234 2.97996783 -20 4 C-22.62827308 4.20435817 -25.24310525 4.37196188 -27.875 4.5 C-33.27327445 4.74366242 -33.27327445 4.74366242 -38.61328125 5.52734375 C-41.55292988 6.10950003 -44.31868216 6.0953991 -47.3125 6.0625 C-48.38113281 6.05347656 -49.44976563 6.04445313 -50.55078125 6.03515625 C-51.35902344 6.02355469 -52.16726563 6.01195312 -53 6 C-49.42682413 3.86213554 -46.05489012 3.44122766 -41.953125 2.9296875 C-41.26426208 2.84373322 -40.57539917 2.75777893 -39.86566162 2.66921997 C-38.40357371 2.48911068 -36.9410087 2.31283863 -35.47802734 2.14013672 C-33.2974026 1.88064094 -31.11958987 1.60337135 -28.94140625 1.32421875 C-19.25332668 0.12949302 -9.7561292 -0.22225404 0 0 Z " fill="#8EAC67" transform="translate(876,756)"/>
<path d="M0 0 C0.99 0.495 0.99 0.495 2 1 C1.67 22.12 1.34 43.24 1 65 C2.32 65.33 3.64 65.66 5 66 C5.33 66.66 5.66 67.32 6 68 C3.03 68.495 3.03 68.495 0 69 C0 46.23 0 23.46 0 0 Z " fill="#040C2D" transform="translate(224,300)"/>
<path d="M0 0 C-2.46233545 2.46233545 -3.44109239 2.35117599 -6.84765625 2.6328125 C-7.83830078 2.7167627 -8.82894531 2.80071289 -9.84960938 2.88720703 C-11.43999023 3.00491455 -11.43999023 3.00491455 -13.0625 3.125 C-14.13693359 3.20991699 -15.21136719 3.29483398 -16.31835938 3.38232422 C-25.22670863 4.04156329 -34.07330177 4.21831599 -43 4 C-43 3.67 -43 3.34 -43 3 C-33.39350111 1.78889916 -23.84431959 0.76350618 -14.171875 0.24609375 C-11.05906409 0.07041923 -11.05906409 0.07041923 -8.28515625 -0.5546875 C-5.33214857 -1.13014541 -2.92058778 -0.61128582 0 0 Z " fill="#709148" transform="translate(975,717)"/>
<path d="M0 0 C2.97 0 5.94 0 9 0 C9.66 0.66 10.32 1.32 11 2 C8.03 2 5.06 2 2 2 C1.67 15.2 1.34 28.4 1 42 C0.67 42 0.34 42 0 42 C0 28.14 0 14.28 0 0 Z " fill="#0F1437" transform="translate(266,679)"/>
<path d="M0 0 C3.06255961 -0.0270491 6.1248786 -0.04686298 9.1875 -0.0625 C10.05181641 -0.07087891 10.91613281 -0.07925781 11.80664062 -0.08789062 C16.03006608 -0.10407233 19.86895384 0.02798914 24 1 C26.33301986 1.03824623 28.66711508 1.04574284 31 1 C31 1.66 31 2.32 31 3 C32.98 3 34.96 3 37 3 C37 3.33 37 3.66 37 4 C24.57882122 3.51188749 12.32339184 2.64418311 0 1 C0 0.67 0 0.34 0 0 Z " fill="#45A8C3" transform="translate(619,738)"/>
<path d="M0 0 C28.93263641 -0.20638953 28.93263641 -0.20638953 43 1 C43 1.33 43 1.66 43 2 C34.42 2.33 25.84 2.66 17 3 C17 2.67 17 2.34 17 2 C11.39 1.67 5.78 1.34 0 1 C0 0.67 0 0.34 0 0 Z " fill="#3D4865" transform="translate(208,677)"/>
<path d="M0 0 C0 1.65 0 3.3 0 5 C-12.07650323 7.38233749 -23.64349469 9.23661393 -36 9 C-36 8.67 -36 8.34 -36 8 C-35.2793335 7.91435791 -34.55866699 7.82871582 -33.81616211 7.74047852 C-30.52317358 7.34866394 -27.23033621 6.95559261 -23.9375 6.5625 C-22.80376953 6.42779297 -21.67003906 6.29308594 -20.50195312 6.15429688 C-14.9913002 5.49558909 -9.4890291 4.82056603 -4 4 C-4 3.34 -4 2.68 -4 2 C-1 0 -1 0 0 0 Z " fill="#34A6C5" transform="translate(673,373)"/>
<path d="M0 0 C0.33 0 0.66 0 1 0 C1 3.3 1 6.6 1 10 C-1.54194161 9.85811015 -4.08347993 9.71160845 -6.625 9.5625 C-7.69427734 9.50352539 -7.69427734 9.50352539 -8.78515625 9.44335938 C-12.91803682 9.19690319 -16.92269024 8.76529947 -21 8 C-21 7.34 -21 6.68 -21 6 C-14.48545861 5.87472036 -14.48545861 5.87472036 -12.0625 6.5 C-9.72390203 7.06693284 -7.65273419 7.09783433 -5.25 7.0625 C-4.05117188 7.04896484 -4.05117188 7.04896484 -2.828125 7.03515625 C-1.92320312 7.01775391 -1.92320312 7.01775391 -1 7 C-0.67 4.69 -0.34 2.38 0 0 Z " fill="#1097B8" transform="translate(671,733)"/>
<path d="M0 0 C1.79133978 -0.05391993 3.58313899 -0.09275571 5.375 -0.125 C6.37273437 -0.14820313 7.37046875 -0.17140625 8.3984375 -0.1953125 C11 0 11 0 13 2 C-4.85649203 5.44419134 -4.85649203 5.44419134 -13 5 C-13 4.67 -13 4.34 -13 4 C-11.02 4 -9.04 4 -7 4 C-7 3.34 -7 2.68 -7 2 C-4.69 2 -2.38 2 0 2 C0 1.34 0 0.68 0 0 Z " fill="#101938" transform="translate(245,363)"/>
<path d="M0 0 C0 0.66 0 1.32 0 2 C0.63164063 1.98839844 1.26328125 1.97679687 1.9140625 1.96484375 C9.64964919 1.8868191 17.29234406 2.36988506 25 3 C25 3.33 25 3.66 25 4 C11.57331559 4.35541223 -1.64005361 3.25835166 -15 2 C-15 1.67 -15 1.34 -15 1 C-12.8750734 0.83240016 -10.75005624 0.66594799 -8.625 0.5 C-7.44164063 0.4071875 -6.25828125 0.314375 -5.0390625 0.21875 C-3.36213157 0.09804546 -1.68126944 0 0 0 Z " fill="#575F7A" transform="translate(116,744)"/>
<path d="M0 0 C1.21236328 0.01353516 1.21236328 0.01353516 2.44921875 0.02734375 C3.37154297 0.04474609 3.37154297 0.04474609 4.3125 0.0625 C4.3125 1.0525 4.3125 2.0425 4.3125 3.0625 C7.6125 3.0625 10.9125 3.0625 14.3125 3.0625 C14.3125 3.3925 14.3125 3.7225 14.3125 4.0625 C11.77076023 4.08966824 9.22931585 4.10941969 6.6875 4.125 C5.61822266 4.13756836 5.61822266 4.13756836 4.52734375 4.15039062 C0.33905562 4.16960296 -3.5603462 3.8892327 -7.6875 3.0625 C-7.6875 2.4025 -7.6875 1.7425 -7.6875 1.0625 C-4.80538698 0.10179566 -2.98899956 -0.04331883 0 0 Z " fill="#404A67" transform="translate(346.6875,712.9375)"/>
<path d="M0 0 C3.54193375 0.13975405 7.08346999 0.28788934 10.625 0.4375 C12.12353516 0.49647461 12.12353516 0.49647461 13.65234375 0.55664062 C18.50956104 0.76572614 23.22132044 1.02958555 28 2 C28 2.33 28 2.66 28 3 C25.69 3.33 23.38 3.66 21 4 C21 3.34 21 2.68 21 2 C19.3745692 2.14095064 17.74965949 2.28792087 16.125 2.4375 C15.22007812 2.51871094 14.31515625 2.59992187 13.3828125 2.68359375 C10.98889139 2.86989285 10.98889139 2.86989285 9 4 C7.45386986 3.91348369 5.91090613 3.75997364 4.375 3.5625 C3.14910156 3.40974609 3.14910156 3.40974609 1.8984375 3.25390625 C1.27195312 3.17011719 0.64546875 3.08632813 0 3 C0 2.01 0 1.02 0 0 Z " fill="#2F3856" transform="translate(266,778)"/>
<path d="M0 0 C2.08304538 -0.05418326 4.16649768 -0.09287551 6.25 -0.125 C7.99023438 -0.15980469 7.99023438 -0.15980469 9.765625 -0.1953125 C12.82786046 -0.0103949 14.44202751 0.39176977 17 2 C16 3 16 3 14.15234375 3.09765625 C12.1015625 3.06510417 10.05078125 3.03255208 8 3 C8 2.34 8 1.68 8 1 C7.01 1 6.02 1 5 1 C5 1.66 5 2.32 5 3 C4.01 3 3.02 3 2 3 C1.67 5.97 1.34 8.94 1 12 C0.67 12 0.34 12 0 12 C0 8.04 0 4.08 0 0 Z " fill="#053466" transform="translate(441,754)"/>
<path d="M0 0 C0 0.66 0 1.32 0 2 C5.94 1.505 5.94 1.505 12 1 C12 1.66 12 2.32 12 3 C1.47329223 3.30028643 -8.58696894 2.41193641 -19 1 C-19 0.67 -19 0.34 -19 0 C-16.77156512 -0.19600577 -14.54220107 -0.38146569 -12.3125 -0.5625 C-10.45044922 -0.71912109 -10.45044922 -0.71912109 -8.55078125 -0.87890625 C-5.44164467 -0.98493841 -2.99189028 -0.77228525 0 0 Z " fill="#317FA4" transform="translate(558,731)"/>
<path d="M0 0 C5.21830534 -0.20463943 9.17611072 -0.17075018 14 2 C16.98294925 2.74953564 19.9871136 3.38298187 23 4 C23 4.33 23 4.66 23 5 C14.94924431 5.65720455 7.64327471 3.22928846 0 1 C0 0.67 0 0.34 0 0 Z " fill="#104979" transform="translate(473,908)"/>
<path d="M0 0 C8.91 0 17.82 0 27 0 C27 1.65 27 3.3 27 5 C26.01 4.67 25.02 4.34 24 4 C24 3.01 24 2.02 24 1 C23.34257813 1.16113281 22.68515625 1.32226562 22.0078125 1.48828125 C18.28781722 2.12116356 14.6361464 2.18407455 10.875 2.1875 C10.15957031 2.19974609 9.44414063 2.21199219 8.70703125 2.22460938 C4.92179791 2.23522218 3.22632988 2.15088659 0 0 Z " fill="#028FB7" transform="translate(645,579)"/>
<path d="M0 0 C0.73839111 0.17805176 1.47678223 0.35610352 2.23754883 0.53955078 C3.03999023 0.72646484 3.84243164 0.91337891 4.66918945 1.10595703 C5.50256836 1.31349609 6.33594727 1.52103516 7.19458008 1.73486328 C8.03956055 1.93466797 8.88454102 2.13447266 9.75512695 2.34033203 C11.84183923 2.8354841 13.92484642 3.3462032 16.00708008 3.85986328 C16.00708008 4.51986328 16.00708008 5.17986328 16.00708008 5.85986328 C8.85112661 5.15829922 1.98852827 3.55201307 -4.99291992 1.85986328 C-1.99291992 -0.14013672 -1.99291992 -0.14013672 0 0 Z " fill="#256591" transform="translate(516.992919921875,916.14013671875)"/>
<path d="M0 0 C4.28730064 0.54762159 8.07335074 1.14121306 12.01171875 3.046875 C12.01171875 3.706875 12.01171875 4.366875 12.01171875 5.046875 C13.00171875 5.376875 13.99171875 5.706875 15.01171875 6.046875 C8.52698882 5.30997387 2.31932132 3.69368749 -3.98828125 2.046875 C-1.98828125 0.046875 -1.98828125 0.046875 0 0 Z " fill="#2F97B8" transform="translate(625.98828125,938.953125)"/>
<path d="M0 0 C3.625 0.1875 3.625 0.1875 6.625 2.1875 C-0.71263707 3.36152193 -7.95665418 3.28127123 -15.375 3.1875 C-15.045 2.5275 -14.715 1.8675 -14.375 1.1875 C-13.66472656 1.19910156 -12.95445312 1.21070313 -12.22265625 1.22265625 C-11.30355469 1.23167969 -10.38445313 1.24070312 -9.4375 1.25 C-8.06271484 1.26740234 -8.06271484 1.26740234 -6.66015625 1.28515625 C-3.60047453 1.15440062 -3.42175116 0.19009729 0 0 Z " fill="#BED398" transform="translate(707.375,739.8125)"/>
<path d="M0 0 C2.75084547 0.11411804 5.50011947 0.24085949 8.25 0.375 C9.02730469 0.4059375 9.80460938 0.436875 10.60546875 0.46875 C17.72431144 0.83381886 17.72431144 0.83381886 21 3 C15.01561298 4.99479567 7.07126902 3.43793214 1 2 C0.67 1.34 0.34 0.68 0 0 Z " fill="#139CC0" transform="translate(645,773)"/>
<path d="M0 0 C0 0.33 0 0.66 0 1 C-0.59167969 1.06058594 -1.18335938 1.12117187 -1.79296875 1.18359375 C-2.97826172 1.30927734 -2.97826172 1.30927734 -4.1875 1.4375 C-4.96480469 1.51871094 -5.74210938 1.59992187 -6.54296875 1.68359375 C-9.0041584 1.96344181 -9.0041584 1.96344181 -11.40625 2.53125 C-14.42151812 3.07617797 -17.25041856 3.09614925 -20.3125 3.0625 C-21.38113281 3.05347656 -22.44976563 3.04445313 -23.55078125 3.03515625 C-24.35902344 3.02355469 -25.16726563 3.01195312 -26 3 C-18.26135818 -1.23987948 -8.56725393 -0.11917355 0 0 Z " fill="#84A657" transform="translate(849,759)"/>
<path d="M0 0 C-8.28539461 3.71360436 -18.00189983 4.35992401 -27 4 C-27 3.67 -27 3.34 -27 3 C-23.25239331 2.29899918 -19.50163915 1.61656013 -15.75 0.9375 C-14.68652344 0.73833984 -13.62304688 0.53917969 -12.52734375 0.33398438 C-10.99013672 0.05844727 -10.99013672 0.05844727 -9.421875 -0.22265625 C-8.47924805 -0.39547119 -7.53662109 -0.56828613 -6.56542969 -0.74633789 C-4.04822766 -0.99523139 -2.38219113 -0.78671127 0 0 Z " fill="#347AA4" transform="translate(536,241)"/>
<path d="M0 0 C0.33 0.99 0.66 1.98 1 3 C-5.43974581 2.37679879 -11.67572401 1.35991738 -18 0 C-18 -0.33 -18 -0.66 -18 -1 C-11.50448709 -2.20287276 -6.39014027 -1.58444052 0 0 Z " fill="#2D8BB0" transform="translate(609,935)"/>
<path d="M0 0 C10.49996894 0.14365629 10.49996894 0.14365629 15.390625 1.23046875 C14.730625 1.89046875 14.070625 2.55046875 13.390625 3.23046875 C10.78125 3.20703125 10.78125 3.20703125 7.640625 2.85546875 C3.52634083 2.41096066 -0.46955856 2.16849545 -4.609375 2.23046875 C-2.609375 0.23046875 -2.609375 0.23046875 0 0 Z " fill="#0A477B" transform="translate(474.609375,756.76953125)"/>
<path d="M0 0 C0.79921875 0.01804687 1.5984375 0.03609375 2.421875 0.0546875 C3.02515625 0.07789063 3.6284375 0.10109375 4.25 0.125 C4.25 0.785 4.25 1.445 4.25 2.125 C6.89 2.125 9.53 2.125 12.25 2.125 C12.25 2.455 12.25 2.785 12.25 3.125 C5.17278069 3.24609311 -1.72195301 2.97873239 -8.75 2.125 C-5.68753253 0.34090198 -3.52920727 -0.10380021 0 0 Z " fill="#041135" transform="translate(359.75,713.875)"/>
<path d="M0 0 C2.31 0 4.62 0 7 0 C6.34 0.66 5.68 1.32 5 2 C4.01 2 3.02 2 2 2 C1.67 7.94 1.34 13.88 1 20 C0.67 20 0.34 20 0 20 C0 13.4 0 6.8 0 0 Z " fill="#C6D9A6" transform="translate(687,775)"/>
<path d="M0 0 C2.64 0 5.28 0 8 0 C8 4.95 8 9.9 8 15 C7.67 15 7.34 15 7 15 C7 10.71 7 6.42 7 2 C5.35 2.33 3.7 2.66 2 3 C1.34 2.67 0.68 2.34 0 2 C0 1.34 0 0.68 0 0 Z " fill="#7EA157" transform="translate(878,754)"/>
<path d="M0 0 C-2.91824244 1.66674321 -4.97594379 2.2432008 -8.328125 2.1953125 C-9.12734375 2.18886719 -9.9265625 2.18242188 -10.75 2.17578125 C-11.575 2.15902344 -12.4 2.14226563 -13.25 2.125 C-14.09046875 2.11597656 -14.9309375 2.10695313 -15.796875 2.09765625 C-17.86470604 2.07415817 -19.93238995 2.03828908 -22 2 C-15.41967233 -1.77559785 -7.25319125 -1.45063825 0 0 Z " fill="#75954B" transform="translate(929,721)"/>
<path d="M0 0 C-4.35224116 2.04011305 -8.27049647 2.47449961 -13 3 C-13.763125 3.226875 -14.52625 3.45375 -15.3125 3.6875 C-17 4 -17 4 -20 2 C-17.41842632 1.46867611 -14.83538244 0.94965621 -12.25 0.4375 C-11.52039063 0.28603516 -10.79078125 0.13457031 -10.0390625 -0.02148438 C-6.33442927 -0.74557178 -3.60677678 -1.09817231 0 0 Z " fill="#42A0C1" transform="translate(608,227)"/>
<path d="M0 0 C0.33 0.66 0.66 1.32 1 2 C1.66 2 2.32 2 3 2 C3 5.63 3 9.26 3 13 C2.01 13 1.02 13 0 13 C0 8.71 0 4.42 0 0 Z " fill="#6F9146" transform="translate(946,542)"/>
<path d="M0 0 C0 0.66 0 1.32 0 2 C-3.63 2 -7.26 2 -11 2 C-11.33 1.34 -11.66 0.68 -12 0 C-8.04395608 -1.21724428 -3.79359325 -1.89679663 0 0 Z " fill="#1B3563" transform="translate(416,719)"/>
<path d="M0 0 C5.21979128 -0.1799928 9.07262981 0.02905192 14 2 C14 2.66 14 3.32 14 4 C9.02906176 3.58846263 4.55491614 3.20399168 0 1 C0 0.67 0 0.34 0 0 Z " fill="#1A5A88" transform="translate(497,913)"/>
<path d="M0 0 C-0.33 0.66 -0.66 1.32 -1 2 C-6.35003168 3.15866976 -11.66632103 3.26323976 -17 2 C-17 1.67 -17 1.34 -17 1 C-11.27959989 0.1679418 -5.77759884 -0.12036664 0 0 Z " fill="#ABC584" transform="translate(750,769)"/>
<path d="M0 0 C0 0.33 0 0.66 0 1 C-6.38226945 1.82351864 -12.56744599 2.12086218 -19 2 C-12.41993906 -1.37262538 -7.20108212 -0.90887444 0 0 Z " fill="#789555" transform="translate(1029,756)"/>
<path d="M0 0 C2.97 0.33 5.94 0.66 9 1 C9 1.33 9 1.66 9 2 C-0.405 2.99 -0.405 2.99 -10 4 C-9.01 3.67 -8.02 3.34 -7 3 C-7 2.34 -7 1.68 -7 1 C-4.69 1.33 -2.38 1.66 0 2 C0 1.34 0 0.68 0 0 Z " fill="#384362" transform="translate(309,356)"/>
<path d="M0 0 C1.09570312 0.19464844 2.19140625 0.38929688 3.3203125 0.58984375 C4.16335938 0.74582031 5.00640625 0.90179687 5.875 1.0625 C5.875 1.7225 5.875 2.3825 5.875 3.0625 C4.10344346 2.94820603 2.33273771 2.82066963 0.5625 2.6875 C-0.42363281 2.61789062 -1.40976562 2.54828125 -2.42578125 2.4765625 C-5.125 2.0625 -5.125 2.0625 -8.125 0.0625 C-5.2144446 -1.3927777 -3.16650948 -0.57266661 0 0 Z " fill="#093A6D" transform="translate(456.125,902.9375)"/>
<path d="M0 0 C1.77049689 -0.05410687 3.54146849 -0.09284119 5.3125 -0.125 C6.29863281 -0.14820313 7.28476562 -0.17140625 8.30078125 -0.1953125 C11 0 11 0 14 2 C12.23186888 2.24915939 10.46025018 2.47366632 8.6875 2.6875 C7.70136719 2.81511719 6.71523438 2.94273437 5.69921875 3.07421875 C3 3 3 3 1.14453125 1.51953125 C0.57798828 0.76736328 0.57798828 0.76736328 0 0 Z " fill="#3492B6" transform="translate(594,768)"/>
<path d="M0 0 C0.80050781 0.03480469 1.60101563 0.06960938 2.42578125 0.10546875 C3.63814453 0.14607422 3.63814453 0.14607422 4.875 0.1875 C5.48988281 0.22230469 6.10476563 0.25710938 6.73828125 0.29296875 C6.73828125 1.28296875 6.73828125 2.27296875 6.73828125 3.29296875 C2.77828125 3.29296875 -1.18171875 3.29296875 -5.26171875 3.29296875 C-2.26171875 0.29296875 -2.26171875 0.29296875 0 0 Z " fill="#233458" transform="translate(370.26171875,714.70703125)"/>
<path d="M0 0 C2.97 0.495 2.97 0.495 6 1 C5 4 5 4 2 6 C1.34 6.99 0.68 7.98 0 9 C0 6.03 0 3.06 0 0 Z " fill="#7F9D60" transform="translate(1042,290)"/>
<path d="M0 0 C-2.24578708 2.24578708 -4.069792 2.85650419 -7 4 C-7.99 4.66 -8.98 5.32 -10 6 C-10 4.35 -10 2.7 -10 1 C-6.52674819 -0.1577506 -3.63932552 -0.06866652 0 0 Z " fill="#13598D" transform="translate(505,421)"/>
<path d="M0 0 C6.6 0.33 13.2 0.66 20 1 C20 1.33 20 1.66 20 2 C6.3667426 3.51708428 6.3667426 3.51708428 0 1 C0 0.67 0 0.34 0 0 Z " fill="#739EB9" transform="translate(495,758)"/>
<path d="M0 0 C0 0.66 0 1.32 0 2 C-2.97 2 -5.94 2 -9 2 C-9.33 1.34 -9.66 0.68 -10 0 C-6.7169902 -1.6415049 -3.57454967 -0.51888624 0 0 Z " fill="#187FA6" transform="translate(605,735)"/>
<path d="M0 0 C0.33 0 0.66 0 1 0 C1 2.31 1 4.62 1 7 C-3.455 7.495 -3.455 7.495 -8 8 C-8 7.34 -8 6.68 -8 6 C-5.36 5.67 -2.72 5.34 0 5 C0 3.35 0 1.7 0 0 Z " fill="#6B8E42" transform="translate(984,710)"/>
<path d="M0 0 C0 1.65 0 3.3 0 5 C-3.67410785 6.17571451 -7.16929183 6.07366746 -11 6 C-11 5.67 -11 5.34 -11 5 C-7.535 4.505 -7.535 4.505 -4 4 C-4 3.34 -4 2.68 -4 2 C-1 0 -1 0 0 0 Z " fill="#089CBA" transform="translate(673,373)"/>
<path d="M0 0 C3.3 0.33 6.6 0.66 10 1 C9.67 1.66 9.34 2.32 9 3 C6.36 3 3.72 3 1 3 C0.67 2.01 0.34 1.02 0 0 Z " fill="#124578" transform="translate(448,754)"/>
<path d="M0 0 C0 0.66 0 1.32 0 2 C-1.45792884 2.05399736 -2.91642712 2.09279177 -4.375 2.125 C-5.18710937 2.14820313 -5.99921875 2.17140625 -6.8359375 2.1953125 C-9 2 -9 2 -11 0 C-3.57142857 -1.28571429 -3.57142857 -1.28571429 0 0 Z " fill="#16739F" transform="translate(582,733)"/>
<path d="M0 0 C1.45792884 -0.05399736 2.91642712 -0.09279177 4.375 -0.125 C5.18710937 -0.14820313 5.99921875 -0.17140625 6.8359375 -0.1953125 C9 0 9 0 11 2 C8.03 2 5.06 2 2 2 C1.67 2.66 1.34 3.32 1 4 C0.67 2.68 0.34 1.36 0 0 Z " fill="#1A284C" transform="translate(266,679)"/>
<path d="M0 0 C3.3 0.33 6.6 0.66 10 1 C9.67 1.66 9.34 2.32 9 3 C6.1875 3.1875 6.1875 3.1875 3 3 C2.01 2.01 1.02 1.02 0 0 Z " fill="#127BA7" transform="translate(583,767)"/>
<path d="M0 0 C1.98 0 3.96 0 6 0 C6.33 0.66 6.66 1.32 7 2 C3.37 2.66 -0.26 3.32 -4 4 C-4 3.34 -4 2.68 -4 2 C-2.68 2 -1.36 2 0 2 C0 1.34 0 0.68 0 0 Z " fill="#A2BD75" transform="translate(730,939)"/>
<path d="M0 0 C2.97 0.33 5.94 0.66 9 1 C9 1.33 9 1.66 9 2 C3.94997778 3.03590199 -0.87416389 3.10251672 -6 3 C-6 2.67 -6 2.34 -6 2 C-4.02 2 -2.04 2 0 2 C0 1.34 0 0.68 0 0 Z " fill="#414D6B" transform="translate(238,365)"/>
<path d="M0 0 C0.33 0 0.66 0 1 0 C1 4.29 1 8.58 1 13 C-0.32 12.67 -1.64 12.34 -3 12 C-2.34 11.34 -1.68 10.68 -1 10 C-0.53837573 7.56747339 -0.53837573 7.56747339 -0.375 4.875 C-0.30023437 3.96492187 -0.22546875 3.05484375 -0.1484375 2.1171875 C-0.09945312 1.41851563 -0.05046875 0.71984375 0 0 Z " fill="#0B98B9" transform="translate(671,938)"/>
<path d="M0 0 C3.63 0.33 7.26 0.66 11 1 C6.67161176 3.16419412 5.50257649 3.20068706 1 2 C0.67 1.34 0.34 0.68 0 0 Z " fill="#1493B8" transform="translate(645,773)"/>
<path d="M0 0 C-0.33 0.99 -0.66 1.98 -1 3 C-2.875 3.625 -2.875 3.625 -5 4 C-5.99 4.33 -6.98 4.66 -8 5 C-8 4.34 -8 3.68 -8 3 C-8.66 2.67 -9.32 2.34 -10 2 C-8.7090864 1.66376204 -7.41723903 1.33110751 -6.125 1 C-5.40570313 0.814375 -4.68640625 0.62875 -3.9453125 0.4375 C-2 0 -2 0 0 0 Z " fill="#061232" transform="translate(264,292)"/>
<path d="M0 0 C2.64 0.33 5.28 0.66 8 1 C8 1.66 8 2.32 8 3 C5.36 2.67 2.72 2.34 0 2 C0 1.34 0 0.68 0 0 Z " fill="#36749D" transform="translate(525,919)"/>
<path d="M0 0 C0 0.99 0 1.98 0 3 C-3.3 3 -6.6 3 -10 3 C-10 2.67 -10 2.34 -10 2 C-3.375 0 -3.375 0 0 0 Z " fill="#0A1A33" transform="translate(319,453)"/>
</svg>
